{
date = "2016-04-01 17:04:23 +0000";
familyName = "новый шрифт";
fontMaster = (
{
alignmentZones = (
"{710, 12}",
"{0, -12}"
);
ascender = 800;
capHeight = 710;
descender = -200;
guideLines = (
{
locked = 1;
position = "{757, 424}";
},
{
position = "{665, 722}";
},
{
position = "{537, -12}";
}
);
id = "A550F09D-1C56-42E6-BD18-3147F7934E1A";
xHeight = 500;
}
);
glyphs = (
{
glyphname = "Man-georgian";
lastChange = "2016-08-06 08:59:16 +0000";
layers = (
{
guideLines = (
{
angle = 90;
position = "{301, 605}";
}
);
layerId = "A550F09D-1C56-42E6-BD18-3147F7934E1A";
name = Regular;
paths = (
{
closed = 1;
nodes = (
"119 722 OFFCURVE",
"49 654 OFFCURVE",
"49 537 CURVE SMOOTH",
"49 520 LINE",
"147 520 LINE",
"147 537 LINE SMOOTH",
"147 569 OFFCURVE",
"148 636 OFFCURVE",
"233 636 CURVE SMOOTH",
"318 636 OFFCURVE",
"319 569 OFFCURVE",
"319 537 CURVE SMOOTH",
"319 393 LINE",
"317 393 LINE",
"294 413 OFFCURVE",
"254 424 OFFCURVE",
"221 424 CURVE SMOOTH",
"109 424 OFFCURVE",
"34 356 OFFCURVE",
"34 206 CURVE SMOOTH",
"34 55 OFFCURVE",
"107 -12 OFFCURVE",
"226 -12 CURVE SMOOTH",
"344 -12 OFFCURVE",
"417 55 OFFCURVE",
"417 172 CURVE SMOOTH",
"417 537 LINE SMOOTH",
"417 654 OFFCURVE",
"347 722 OFFCURVE",
"233 722 CURVE SMOOTH"
);
},
{
closed = 1;
nodes = (
"319 172 LINE SMOOTH",
"319 140 OFFCURVE",
"314 73 OFFCURVE",
"226 73 CURVE SMOOTH",
"137 73 OFFCURVE",
"132 143 OFFCURVE",
"132 206 CURVE SMOOTH",
"132 269 OFFCURVE",
"137 338 OFFCURVE",
"226 338 CURVE SMOOTH",
"314 338 OFFCURVE",
"319 271 OFFCURVE",
"319 239 CURVE SMOOTH"
);
}
);
width = 451;
}
);
unicode = 10AB;
},
{
color = 5;
glyphname = "an-georgian";
lastChange = "2017-03-22 11:03:36 +0000";
layers = (
{
backgroundImage = {
crop = "{{0, 0}, {2048, 414}}";
imagePath = shrift.jpg;
transform = "{8.792, 0, 0, 8.792, -883, -757}";
};
layerId = "A550F09D-1C56-42E6-BD18-3147F7934E1A";
name = Regular;
paths = (
{
closed = 1;
nodes = (
"124 710 LINE",
"131 653 OFFCURVE",
"173 606 OFFCURVE",
"239 567 CURVE SMOOTH",
"300 531 OFFCURVE",
"318 482 OFFCURVE",
"318 406 CURVE SMOOTH",
"318 172 LINE",
"318 140 OFFCURVE",
"313 73 OFFCURVE",
"225 73 CURVE SMOOTH",
"136 73 OFFCURVE",
"132 140 OFFCURVE",
"132 176 CURVE SMOOTH",
"132 231 OFFCURVE",
"148 272 OFFCURVE",
"171 310 CURVE",
"73 312 LINE",
"50 281 OFFCURVE",
"34 235 OFFCURVE",
"34 176 CURVE SMOOTH",
"34 55 OFFCURVE",
"106 -12 OFFCURVE",
"225 -12 CURVE SMOOTH",
"343 -12 OFFCURVE",
"416 55 OFFCURVE",
"416 172 CURVE SMOOTH",
"416 395 LINE SMOOTH",
"416 552 OFFCURVE",
"371 588 OFFCURVE",
"321 622 CURVE SMOOTH",
"283 648 OFFCURVE",
"243 664 OFFCURVE",
"222 710 CURVE"
);
}
);
width = 450;
}
);
unicode = 10D0;
},
{
color = 5;
glyphname = "ban-georgian";
lastChange = "2017-03-22 11:06:55 +0000";
layers = (
{
backgroundImage = {
crop = "{{0, 0}, {158, 97}}";
imagePath = asoebi/b.jpg;
locked = "1";
transform = "{8.576, 0, 0, 8.576, -486, -56}";
};
layerId = "A550F09D-1C56-42E6-BD18-3147F7934E1A";
name = Regular;
paths = (
{
closed = 1;
nodes = (
"289 558 LINE SMOOTH",
"289 605 OFFCURVE",
"289 646 OFFCURVE",
"251 668 CURVE SMOOTH",
"213 690 OFFCURVE",
"163 689 OFFCURVE",
"162 710 CURVE",
"65 710 LINE",
"65 652 OFFCURVE",
"102 625 OFFCURVE",
"139 616 CURVE SMOOTH",
"180 606 OFFCURVE",
"191 596 OFFCURVE",
"191 542 CURVE SMOOTH",
"191 422 LINE",
"93 409 OFFCURVE",
"34 342 OFFCURVE",
"34 206 CURVE SMOOTH",
"34 55 OFFCURVE",
"107 -12 OFFCURVE",
"226 -12 CURVE SMOOTH",
"345 -12 OFFCURVE",
"418 55 OFFCURVE",
"418 206 CURVE SMOOTH",
"418 328 OFFCURVE",
"370 395 OFFCURVE",
"289 417 CURVE"
);
},
{
closed = 1;
nodes = (
"137 73 OFFCURVE",
"132 143 OFFCURVE",
"132 206 CURVE SMOOTH",
"132 269 OFFCURVE",
"137 339 OFFCURVE",
"226 339 CURVE SMOOTH",
"315 339 OFFCURVE",
"320 269 OFFCURVE",
"320 206 CURVE SMOOTH",
"320 143 OFFCURVE",
"315 73 OFFCURVE",
"226 73 CURVE SMOOTH"
);
}
);
width = 452;
}
);
unicode = 10D1;
},
{
color = 5;
glyphname = "gan-georgian";
lastChange = "2017-03-22 11:09:20 +0000";
layers = (
{
backgroundImage = {
crop = "{{0, 0}, {2048, 414}}";
imagePath = shrift.jpg;
locked = "1";
transform = "{8.792, 0, 0, 8.792, -1772, -761}";
};
layerId = "A550F09D-1C56-42E6-BD18-3147F7934E1A";
name = Regular;
paths = (
{
closed = 1;
nodes = (
"327 463 OFFCURVE",
"352 513 OFFCURVE",
"353 587 CURVE SMOOTH",
"353 595 LINE SMOOTH",
"353 665 OFFCURVE",
"296 722 OFFCURVE",
"226 722 CURVE SMOOTH",
"156 722 OFFCURVE",
"99 665 OFFCURVE",
"99 596 CURVE SMOOTH",
"99 560 LINE",
"189 560 LINE",
"189 596 LINE SMOOTH",
"189 618 OFFCURVE",
"203 636 OFFCURVE",
"226 636 CURVE SMOOTH",
"249 636 OFFCURVE",
"263 618 OFFCURVE",
"263 595 CURVE SMOOTH",
"263 587 LINE SMOOTH",
"263 552 OFFCURVE",
"252 489 OFFCURVE",
"193 422 CURVE",
"94 410 OFFCURVE",
"34 343 OFFCURVE",
"34 206 CURVE SMOOTH",
"34 55 OFFCURVE",
"107 -12 OFFCURVE",
"226 -12 CURVE SMOOTH",
"345 -12 OFFCURVE",
"418 55 OFFCURVE",
"418 206 CURVE SMOOTH",
"418 324 OFFCURVE",
"373 391 OFFCURVE",
"296 414 CURVE"
);
},
{
closed = 1;
nodes = (
"137 73 OFFCURVE",
"132 143 OFFCURVE",
"132 206 CURVE SMOOTH",
"132 269 OFFCURVE",
"137 339 OFFCURVE",
"226 339 CURVE SMOOTH",
"315 339 OFFCURVE",
"320 269 OFFCURVE",
"320 206 CURVE SMOOTH",
"320 143 OFFCURVE",
"315 73 OFFCURVE",
"226 73 CURVE SMOOTH"
);
}
);
width = 452;
}
);
unicode = 10D2;
},
{
color = 5;
glyphname = "don-georgian";
lastChange = "2016-08-06 08:41:39 +0000";
layers = (
{
backgroundImage = {
crop = "{{0, 0}, {2048, 414}}";
imagePath = shrift.jpg;
locked = "1";
transform = "{8.792, 0, 0, 8.792, -2228, -760}";
};
layerId = "A550F09D-1C56-42E6-BD18-3147F7934E1A";
name = Regular;
paths = (
{
closed = 1;
nodes = (
"157 227 OFFCURVE",
"125 253 OFFCURVE",
"125 327 CURVE",
"127 327 LINE",
"154 302 OFFCURVE",
"190 296 OFFCURVE",
"218 296 CURVE SMOOTH",
"332 296 OFFCURVE",
"403 361 OFFCURVE",
"403 509 CURVE SMOOTH",
"403 657 OFFCURVE",
"332 722 OFFCURVE",
"218 722 CURVE SMOOTH",
"104 722 OFFCURVE",
"34 657 OFFCURVE",
"34 509 CURVE SMOOTH",
"34 363 LINE SMOOTH",
"34 315 OFFCURVE",
"43 267 OFFCURVE",
"69 232 CURVE",
"58 235 OFFCURVE",
"41 236 OFFCURVE",
"34 236 CURVE",
"34 150 LINE",
"154 150 OFFCURVE",
"275 86 OFFCURVE",
"293 0 CURVE",
"392 0 LINE",
"374 86 OFFCURVE",
"319 139 OFFCURVE",
"221 189 CURVE"
);
},
{
closed = 1;
nodes = (
"294 636 OFFCURVE",
"304 570 OFFCURVE",
"304 509 CURVE SMOOTH",
"304 447 OFFCURVE",
"294 382 OFFCURVE",
"218 382 CURVE SMOOTH",
"148 382 OFFCURVE",
"132 418 OFFCURVE",
"132 509 CURVE SMOOTH",
"132 570 OFFCURVE",
"142 636 OFFCURVE",
"218 636 CURVE SMOOTH"
);
}
);
width = 437;
}
);
unicode = 10D3;
},
{
color = 5;
glyphname = "en-georgian";
lastChange = "2017-03-22 11:15:47 +0000";
layers = (
{
backgroundImage = {
crop = "{{0, 0}, {2048, 414}}";
imagePath = shrift.jpg;
locked = "1";
transform = "{8.792, 0, 0, 8.792, -2647, -774}";
};
layerId = "A550F09D-1C56-42E6-BD18-3147F7934E1A";
name = Regular;
paths = (
{
closed = 1;
nodes = (
"156 722 OFFCURVE",
"81 647 OFFCURVE",
"81 554 CURVE SMOOTH",
"81 498 LINE",
"179 498 LINE",
"179 566 LINE SMOOTH",
"179 605 OFFCURVE",
"210 636 OFFCURVE",
"249 636 CURVE SMOOTH",
"287 636 OFFCURVE",
"319 605 OFFCURVE",
"319 566 CURVE SMOOTH",
"319 172 LINE SMOOTH",
"319 140 OFFCURVE",
"314 73 OFFCURVE",
"226 73 CURVE SMOOTH",
"137 73 OFFCURVE",
"132 155 OFFCURVE",
"132 206 CURVE SMOOTH",
"132 251 OFFCURVE",
"146 302 OFFCURVE",
"160 330 CURVE",
"66 330 LINE",
"50 297 OFFCURVE",
"34 258 OFFCURVE",
"34 206 CURVE SMOOTH",
"34 55 OFFCURVE",
"107 -12 OFFCURVE",
"226 -12 CURVE SMOOTH",
"344 -12 OFFCURVE",
"417 55 OFFCURVE",
"417 172 CURVE SMOOTH",
"417 554 LINE SMOOTH",
"417 647 OFFCURVE",
"342 722 OFFCURVE",
"249 722 CURVE SMOOTH"
);
}
);
width = 451;
}
);
unicode = 10D4;
},
{
color = 5;
glyphname = "vin-georgian";
lastChange = "2017-03-22 11:17:33 +0000";
layers = (
{
background = {
paths = (
{
closed = 1;
nodes = (
"32 227 LINE",
"31 217 OFFCURVE",
"30 190 OFFCURVE",
"30 179 CURVE SMOOTH",
"30 50 OFFCURVE",
"97 -12 OFFCURVE",
"216 -12 CURVE SMOOTH",
"334 -12 OFFCURVE",
"407 55 OFFCURVE",
"407 172 CURVE SMOOTH",
"407 339 LINE",
"354 414 LINE",
"354 439 LINE",
"391 495 LINE",
"391 537 LINE SMOOTH",
"391 654 OFFCURVE",
"331 722 OFFCURVE",
"221 722 CURVE SMOOTH",
"103 722 OFFCURVE",
"53 644 OFFCURVE",
"53 527 CURVE SMOOTH",
"53 510 LINE",
"151 510 LINE",
"151 527 LINE SMOOTH",
"151 559 OFFCURVE",
"151 636 OFFCURVE",
"221 636 CURVE SMOOTH",
"284 636 OFFCURVE",
"293 569 OFFCURVE",
"293 537 CURVE",
"285 500 LINE",
"216 478 LINE",
"216 385 LINE",
"309 333 LINE",
"309 172 LINE",
"309 140 OFFCURVE",
"304 73 OFFCURVE",
"216 73 CURVE SMOOTH",
"139 73 OFFCURVE",
"129 136 OFFCURVE",
"128 179 CURVE SMOOTH",
"128 190 OFFCURVE",
"129 215 OFFCURVE",
"130 227 CURVE"
);
}
);
};
backgroundImage = {
crop = "{{0, 0}, {2048, 414}}";
imagePath = shrift.jpg;
locked = "1";
transform = "{8.792, 0, 0, 8.792, -3089, -784}";
};
layerId = "A550F09D-1C56-42E6-BD18-3147F7934E1A";
name = Regular;
paths = (
{
closed = 1;
nodes = (
"18 71 OFFCURVE",
"83 -12 OFFCURVE",
"216 -12 CURVE SMOOTH",
"334 -12 OFFCURVE",
"407 55 OFFCURVE",
"407 172 CURVE SMOOTH",
"407 274 LINE SMOOTH",
"407 336 OFFCURVE",
"376 395 OFFCURVE",
"319 416 CURVE",
"384 437 OFFCURVE",
"393 494 OFFCURVE",
"393 554 CURVE SMOOTH",
"393 647 OFFCURVE",
"318 722 OFFCURVE",
"225 722 CURVE SMOOTH",
"132 722 OFFCURVE",
"57 647 OFFCURVE",
"57 554 CURVE SMOOTH",
"57 525 LINE",
"155 525 LINE",
"155 566 LINE SMOOTH",
"155 605 OFFCURVE",
"186 636 OFFCURVE",
"225 636 CURVE SMOOTH",
"263 636 OFFCURVE",
"295 605 OFFCURVE",
"295 566 CURVE SMOOTH",
"295 557 LINE SMOOTH",
"295 486 OFFCURVE",
"282 459 OFFCURVE",
"216 459 CURVE",
"199 459 LINE",
"199 372 LINE",
"216 372 LINE",
"281 372 OFFCURVE",
"309 339 OFFCURVE",
"309 274 CURVE SMOOTH",
"309 172 LINE SMOOTH",
"309 140 OFFCURVE",
"304 73 OFFCURVE",
"216 73 CURVE SMOOTH",
"127 73 OFFCURVE",
"128 158 OFFCURVE",
"136 222 CURVE",
"38 222 LINE"
);
}
);
width = 441;
}
);
unicode = 10D5;
},
{
color = 5;
glyphname = "zen-georgian";
lastChange = "2017-03-22 11:27:17 +0000";
layers = (
{
backgroundImage = {
crop = "{{0, 0}, {2048, 414}}";
imagePath = shrift.jpg;
locked = "1";
transform = "{8.792, 0, 0, 8.792, -3508, -778}";
};
guideLines = (
{
position = "{-9, 0}";
}
);
layerId = "A550F09D-1C56-42E6-BD18-3147F7934E1A";
name = Regular;
paths = (
{
closed = 1;
nodes = (
"349 414 OFFCURVE",
"313 408 OFFCURVE",
"286 383 CURVE",
"284 383 LINE",
"286 399 OFFCURVE",
"298 509 OFFCURVE",
"302 540 CURVE SMOOTH",
"303 550 OFFCURVE",
"304 570 OFFCURVE",
"304 583 CURVE SMOOTH",
"304 678 OFFCURVE",
"258 722 OFFCURVE",
"169 722 CURVE SMOOTH",
"94 722 OFFCURVE",
"34 678 OFFCURVE",
"34 583 CURVE SMOOTH",
"34 488 OFFCURVE",
"81 442 OFFCURVE",
"166 442 CURVE SMOOTH",
"180 442 OFFCURVE",
"200 446 OFFCURVE",
"211 451 CURVE",
"213 451 LINE",
"204 364 OFFCURVE",
"193 277 OFFCURVE",
"193 230 CURVE SMOOTH",
"193 201 LINE SMOOTH",
"193 53 OFFCURVE",
"263 -12 OFFCURVE",
"377 -12 CURVE SMOOTH",
"491 -12 OFFCURVE",
"562 53 OFFCURVE",
"562 201 CURVE SMOOTH",
"562 349 OFFCURVE",
"491 414 OFFCURVE",
"377 414 CURVE SMOOTH"
);
},
{
closed = 1;
nodes = (
"128 518 OFFCURVE",
"112 547 OFFCURVE",
"112 583 CURVE SMOOTH",
"112 617 OFFCURVE",
"128 646 OFFCURVE",
"169 646 CURVE SMOOTH",
"210 646 OFFCURVE",
"226 617 OFFCURVE",
"226 583 CURVE SMOOTH",
"226 547 OFFCURVE",
"210 518 OFFCURVE",
"169 518 CURVE SMOOTH"
);
},
{
closed = 1;
nodes = (
"301 74 OFFCURVE",
"291 140 OFFCURVE",
"291 201 CURVE SMOOTH",
"291 292 OFFCURVE",
"307 328 OFFCURVE",
"377 328 CURVE SMOOTH",
"453 328 OFFCURVE",
"463 263 OFFCURVE",
"463 201 CURVE SMOOTH",
"463 140 OFFCURVE",
"453 74 OFFCURVE",
"377 74 CURVE SMOOTH"
);
}
);
width = 596;
}
);
unicode = 10D6;
},
{
color = 5;
glyphname = "tan-georgian";
lastChange = "2017-03-04 09:38:43 +0000";
layers = (
{
background = {
paths = (
{
closed = 1;
nodes = (
"365 722 OFFCURVE",
"332 701 OFFCURVE",
"307 678 CURVE",
"305 680 OFFCURVE",
"303 686 OFFCURVE",
"301 688 CURVE SMOOTH",
"274 710 OFFCURVE",
"237 722 OFFCURVE",
"191 722 CURVE SMOOTH",
"73 722 OFFCURVE",
"23 634 OFFCURVE",
"23 517 CURVE SMOOTH",
"23 193 LINE SMOOTH",
"23 76 OFFCURVE",
"73 -12 OFFCURVE",
"191 -12 CURVE SMOOTH",
"301 -12 OFFCURVE",
"361 56 OFFCURVE",
"361 173 CURVE SMOOTH",
"361 537 LINE SMOOTH",
"361 609 OFFCURVE",
"376 636 OFFCURVE",
"417 636 CURVE SMOOTH",
"470 636 OFFCURVE",
"479 569 OFFCURVE",
"479 537 CURVE SMOOTH",
"479 173 LINE SMOOTH",
"479 147 OFFCURVE",
"463 40 OFFCURVE",
"426 3 CURVE",
"426 -12 LINE",
"524 -12 LINE",
"564 -1 OFFCURVE",
"577 61 OFFCURVE",
"577 173 CURVE SMOOTH",
"577 537 LINE SMOOTH",
"577 654 OFFCURVE",
"517 722 OFFCURVE",
"407 722 CURVE SMOOTH"
);
},
{
closed = 1;
nodes = (
"263 141 OFFCURVE",
"254 74 OFFCURVE",
"191 74 CURVE SMOOTH",
"121 74 OFFCURVE",
"121 161 OFFCURVE",
"121 193 CURVE SMOOTH",
"121 517 LINE SMOOTH",
"121 549 OFFCURVE",
"121 636 OFFCURVE",
"191 636 CURVE SMOOTH",
"254 636 OFFCURVE",
"263 569 OFFCURVE",
"263 537 CURVE SMOOTH",
"263 173 LINE SMOOTH"
);
}
);
};
backgroundImage = {
crop = "{{0, 0}, {2048, 414}}";
imagePath = shrift.jpg;
locked = "1";
transform = "{8.792, 0, 0, 8.792, -4132, -793}";
};
guideLines = (
{
angle = 90;
position = "{-70, 298}";
}
);
layerId = "A550F09D-1C56-42E6-BD18-3147F7934E1A";
name = Regular;
paths = (
{
closed = 1;
nodes = (
"34 55 OFFCURVE",
"100 -12 OFFCURVE",
"192 -12 CURVE SMOOTH",
"284 -12 OFFCURVE",
"350 55 OFFCURVE",
"350 142 CURVE SMOOTH",
"350 181 OFFCURVE",
"350 527 OFFCURVE",
"350 580 CURVE",
"350 613 OFFCURVE",
"375 636 OFFCURVE",
"410 636 CURVE SMOOTH",
"445 636 OFFCURVE",
"470 613 OFFCURVE",
"470 580 CURVE SMOOTH",
"470 151 LINE SMOOTH",
"470 96 OFFCURVE",
"461 37 OFFCURVE",
"435 2 CURVE",
"435 0 LINE",
"533 0 LINE",
"559 35 OFFCURVE",
"568 73 OFFCURVE",
"568 169 CURVE SMOOTH",
"568 568 LINE SMOOTH",
"568 655 OFFCURVE",
"502 722 OFFCURVE",
"410 722 CURVE SMOOTH",
"367 722 OFFCURVE",
"326 703 OFFCURVE",
"301 675 CURVE",
"276 703 OFFCURVE",
"236 722 OFFCURVE",
"192 722 CURVE SMOOTH",
"100 722 OFFCURVE",
"34 655 OFFCURVE",
"34 568 CURVE SMOOTH",
"34 142 LINE SMOOTH"
);
},
{
closed = 1;
nodes = (
"132 580 LINE SMOOTH",
"132 613 OFFCURVE",
"157 636 OFFCURVE",
"192 636 CURVE SMOOTH",
"227 636 OFFCURVE",
"252 613 OFFCURVE",
"252 580 CURVE SMOOTH",
"252 130 LINE SMOOTH",
"252 97 OFFCURVE",
"230 74 OFFCURVE",
"192 74 CURVE SMOOTH",
"154 74 OFFCURVE",
"132 97 OFFCURVE",
"132 130 CURVE SMOOTH"
);
}
);
width = 602;
}
);
unicode = 10D7;
},
{
color = 5;
glyphname = "in-georgian";
lastChange = "2016-08-27 08:01:46 +0000";
layers = (
{
backgroundImage = {
crop = "{{0, 0}, {2048, 414}}";
imagePath = shrift.jpg;
locked = "1";
transform = "{8.541, 0, 0, 8.232, -4627, -724}";
};
layerId = "A550F09D-1C56-42E6-BD18-3147F7934E1A";
name = Regular;
paths = (
{
closed = 1;
nodes = (
"34 272 OFFCURVE",
"34 106 OFFCURVE",
"76 0 CURVE",
"174 0 LINE",
"174 2 LINE",
"132 108 OFFCURVE",
"132 295 OFFCURVE",
"132 415 CURVE SMOOTH",
"132 479 LINE SMOOTH",
"132 571 OFFCURVE",
"152 636 OFFCURVE",
"226 636 CURVE SMOOTH",
"300 636 OFFCURVE",
"320 571 OFFCURVE",
"320 479 CURVE SMOOTH",
"320 415 LINE SMOOTH",
"320 295 OFFCURVE",
"320 108 OFFCURVE",
"278 2 CURVE",
"278 0 LINE",
"376 0 LINE",
"418 106 OFFCURVE",
"418 272 OFFCURVE",
"418 433 CURVE SMOOTH",
"418 481 LINE SMOOTH",
"418 651 OFFCURVE",
"330 722 OFFCURVE",
"226 722 CURVE SMOOTH",
"122 722 OFFCURVE",
"34 651 OFFCURVE",
"34 481 CURVE SMOOTH",
"34 433 LINE SMOOTH"
);
}
);
width = 452;
}
);
unicode = 10D8;
},
{
color = 5;
glyphname = "kan-georgian";
lastChange = "2017-03-22 11:23:42 +0000";
layers = (
{
backgroundImage = {
crop = "{{0, 0}, {2048, 414}}";
imagePath = shrift.jpg;
locked = "1";
transform = "{8.792, 0, 0, 8.792, -5210, -819}";
};
layerId = "A550F09D-1C56-42E6-BD18-3147F7934E1A";
name = Regular;
paths = (
{
closed = 1;
nodes = (
"17 71 OFFCURVE",
"82 -12 OFFCURVE",
"215 -12 CURVE SMOOTH",
"333 -12 OFFCURVE",
"406 55 OFFCURVE",
"406 172 CURVE SMOOTH",
"406 274 LINE SMOOTH",
"406 336 OFFCURVE",
"387 394 OFFCURVE",
"338 416 CURVE",
"387 445 OFFCURVE",
"389 494 OFFCURVE",
"389 554 CURVE SMOOTH",
"389 635 OFFCURVE",
"363 681 OFFCURVE",
"320 711 CURVE",
"210 711 LINE",
"210 709 LINE",
"275 668 OFFCURVE",
"291 601 OFFCURVE",
"291 574 CURVE SMOOTH",
"291 557 LINE SMOOTH",
"291 525 OFFCURVE",
"303 458 OFFCURVE",
"215 458 CURVE",
"215 373 LINE",
"303 373 OFFCURVE",
"308 306 OFFCURVE",
"308 274 CURVE SMOOTH",
"308 172 LINE SMOOTH",
"308 140 OFFCURVE",
"303 73 OFFCURVE",
"215 73 CURVE SMOOTH",
"126 73 OFFCURVE",
"127 158 OFFCURVE",
"135 222 CURVE",
"37 222 LINE"
);
}
);
width = 440;
}
);
unicode = 10D9;
},
{
color = 5;
glyphname = "las-georgian";
lastChange = "2017-03-04 09:39:41 +0000";
layers = (
{
backgroundImage = {
crop = "{{0, 0}, {2048, 414}}";
imagePath = shrift.jpg;
locked = "1";
transform = "{8.792, 0, 0, 8.792, -5673, -814}";
};
layerId = "A550F09D-1C56-42E6-BD18-3147F7934E1A";
name = Regular;
paths = (
{
closed = 1;
nodes = (
"154 150 OFFCURVE",
"275 86 OFFCURVE",
"293 0 CURVE",
"392 0 LINE",
"374 86 OFFCURVE",
"319 139 OFFCURVE",
"221 189 CURVE",
"157 227 OFFCURVE",
"132 253 OFFCURVE",
"132 327 CURVE SMOOTH",
"132 509 LINE SMOOTH",
"132 570 OFFCURVE",
"142 636 OFFCURVE",
"218 636 CURVE SMOOTH",
"294 636 OFFCURVE",
"304 570 OFFCURVE",
"304 509 CURVE SMOOTH",
"304 463 OFFCURVE",
"298 410 OFFCURVE",
"277 378 CURVE",
"277 376 LINE",
"375 376 LINE",
"397 409 OFFCURVE",
"403 462 OFFCURVE",
"403 509 CURVE SMOOTH",
"403 657 OFFCURVE",
"332 722 OFFCURVE",
"218 722 CURVE SMOOTH",
"104 722 OFFCURVE",
"34 657 OFFCURVE",
"34 509 CURVE SMOOTH",
"34 363 LINE SMOOTH",
"34 315 OFFCURVE",
"43 267 OFFCURVE",
"69 232 CURVE",
"58 235 OFFCURVE",
"41 236 OFFCURVE",
"34 236 CURVE",
"34 150 LINE"
);
}
);
width = 437;
}
);
unicode = 10DA;
},
{
color = 5;
glyphname = "man-georgian";
lastChange = "2017-03-22 11:26:41 +0000";
layers = (
{
backgroundImage = {
crop = "{{0, 0}, {2048, 414}}";
imagePath = shrift.jpg;
locked = "1";
transform = "{8.792, 0, 0, 8.792, -6090, -821}";
};
layerId = "A550F09D-1C56-42E6-BD18-3147F7934E1A";
name = Regular;
paths = (
{
closed = 1;
nodes = (
"119 722 OFFCURVE",
"49 654 OFFCURVE",
"49 537 CURVE SMOOTH",
"49 520 LINE",
"147 520 LINE",
"147 537 LINE SMOOTH",
"147 569 OFFCURVE",
"148 636 OFFCURVE",
"233 636 CURVE SMOOTH",
"318 636 OFFCURVE",
"319 569 OFFCURVE",
"319 537 CURVE SMOOTH",
"319 393 LINE",
"317 393 LINE",
"294 413 OFFCURVE",
"254 424 OFFCURVE",
"221 424 CURVE SMOOTH",
"109 424 OFFCURVE",
"34 356 OFFCURVE",
"34 206 CURVE SMOOTH",
"34 55 OFFCURVE",
"107 -12 OFFCURVE",
"226 -12 CURVE SMOOTH",
"344 -12 OFFCURVE",
"417 55 OFFCURVE",
"417 172 CURVE SMOOTH",
"417 537 LINE SMOOTH",
"417 654 OFFCURVE",
"347 722 OFFCURVE",
"233 722 CURVE SMOOTH"
);
},
{
closed = 1;
nodes = (
"319 172 LINE SMOOTH",
"319 140 OFFCURVE",
"314 73 OFFCURVE",
"226 73 CURVE SMOOTH",
"137 73 OFFCURVE",
"132 143 OFFCURVE",
"132 206 CURVE SMOOTH",
"132 269 OFFCURVE",
"137 338 OFFCURVE",
"226 338 CURVE SMOOTH",
"314 338 OFFCURVE",
"319 271 OFFCURVE",
"319 239 CURVE SMOOTH"
);
}
);
width = 451;
}
);
unicode = 10DB;
},
{
color = 5;
glyphname = "nar-georgian";
lastChange = "2016-08-27 08:09:33 +0000";
layers = (
{
backgroundImage = {
crop = "{{0, 0}, {2048, 414}}";
imagePath = shrift.jpg;
locked = "1";
transform = "{8.792, 0, 0, 8.792, -6552, -826}";
};
layerId = "A550F09D-1C56-42E6-BD18-3147F7934E1A";
name = Regular;
paths = (
{
closed = 1;
nodes = (
"67 722 OFFCURVE",
"34 654 OFFCURVE",
"34 537 CURVE SMOOTH",
"34 172 LINE SMOOTH",
"34 55 OFFCURVE",
"107 -12 OFFCURVE",
"225 -12 CURVE SMOOTH",
"344 -12 OFFCURVE",
"417 55 OFFCURVE",
"417 206 CURVE SMOOTH",
"417 356 OFFCURVE",
"342 424 OFFCURVE",
"230 424 CURVE SMOOTH",
"197 424 OFFCURVE",
"157 413 OFFCURVE",
"134 393 CURVE",
"132 393 LINE",
"132 555 LINE SMOOTH",
"132 596 OFFCURVE",
"133 633 OFFCURVE",
"197 633 CURVE SMOOTH",
"261 633 OFFCURVE",
"299 609 OFFCURVE",
"392 627 CURVE",
"392 716 LINE",
"299 695 OFFCURVE",
"269 722 OFFCURVE",
"181 722 CURVE SMOOTH"
);
},
{
closed = 1;
nodes = (
"132 271 OFFCURVE",
"137 338 OFFCURVE",
"225 338 CURVE SMOOTH",
"314 338 OFFCURVE",
"319 269 OFFCURVE",
"319 206 CURVE SMOOTH",
"319 143 OFFCURVE",
"314 73 OFFCURVE",
"225 73 CURVE SMOOTH",
"137 73 OFFCURVE",
"132 140 OFFCURVE",
"132 172 CURVE SMOOTH",
"132 239 LINE SMOOTH"
);
}
);
width = 451;
}
);
unicode = 10DC;
},
{
color = 5;
glyphname = "on-georgian";
lastChange = "2017-03-04 09:40:05 +0000";
layers = (
{
backgroundImage = {
crop = "{{0, 0}, {2048, 414}}";
imagePath = shrift.jpg;
locked = "1";
transform = "{8.792, 0, 0, 8.792, -7009, -816}";
};
layerId = "A550F09D-1C56-42E6-BD18-3147F7934E1A";
name = Regular;
paths = (
{
closed = 1;
nodes = (
"34 124 OFFCURVE",
"51 35 OFFCURVE",
"75 0 CURVE",
"173 0 LINE",
"173 2 LINE",
"149 37 OFFCURVE",
"132 141 OFFCURVE",
"132 219 CURVE SMOOTH",
"132 580 LINE SMOOTH",
"132 613 OFFCURVE",
"157 636 OFFCURVE",
"192 636 CURVE SMOOTH",
"227 636 OFFCURVE",
"252 613 OFFCURVE",
"252 580 CURVE SMOOTH",
"252 350 LINE",
"350 350 LINE",
"350 580 LINE SMOOTH",
"350 613 OFFCURVE",
"375 636 OFFCURVE",
"410 636 CURVE SMOOTH",
"445 636 OFFCURVE",
"470 613 OFFCURVE",
"470 580 CURVE SMOOTH",
"470 219 LINE SMOOTH",
"470 141 OFFCURVE",
"453 37 OFFCURVE",
"429 2 CURVE",
"429 0 LINE",
"527 0 LINE",
"551 35 OFFCURVE",
"568 124 OFFCURVE",
"568 237 CURVE SMOOTH",
"568 568 LINE SMOOTH",
"568 655 OFFCURVE",
"502 722 OFFCURVE",
"410 722 CURVE SMOOTH",
"367 722 OFFCURVE",
"326 703 OFFCURVE",
"301 675 CURVE",
"276 703 OFFCURVE",
"236 722 OFFCURVE",
"192 722 CURVE SMOOTH",
"100 722 OFFCURVE",
"34 655 OFFCURVE",
"34 568 CURVE SMOOTH",
"34 237 LINE SMOOTH"
);
}
);
width = 602;
}
);
unicode = 10DD;
},
{
color = 5;
glyphname = "par-georgian";
lastChange = "2017-03-22 11:29:46 +0000";
layers = (
{
backgroundImage = {
crop = "{{0, 0}, {2048, 414}}";
imagePath = shrift.jpg;
locked = "1";
transform = "{8.792, 0, 0, 8.792, -7587, -816}";
};
layerId = "A550F09D-1C56-42E6-BD18-3147F7934E1A";
name = Regular;
paths = (
{
closed = 1;
nodes = (
"36 204 OFFCURVE",
"34 187 OFFCURVE",
"34 171 CURVE SMOOTH",
"34 52 OFFCURVE",
"99 -12 OFFCURVE",
"216 -12 CURVE SMOOTH",
"334 -12 OFFCURVE",
"407 55 OFFCURVE",
"407 172 CURVE SMOOTH",
"407 228 LINE SMOOTH",
"407 290 OFFCURVE",
"388 348 OFFCURVE",
"339 370 CURVE",
"388 399 OFFCURVE",
"392 446 OFFCURVE",
"392 496 CURVE SMOOTH",
"392 560 OFFCURVE",
"360 598 OFFCURVE",
"323 626 CURVE SMOOTH",
"285 655 OFFCURVE",
"253 668 OFFCURVE",
"245 710 CURVE",
"147 710 LINE",
"151 655 OFFCURVE",
"174 624 OFFCURVE",
"240 578 CURVE SMOOTH",
"259 565 OFFCURVE",
"294 537 OFFCURVE",
"294 494 CURVE SMOOTH",
"294 467 OFFCURVE",
"304 412 OFFCURVE",
"216 412 CURVE SMOOTH",
"195 412 LINE",
"195 327 LINE",
"216 327 LINE SMOOTH",
"304 327 OFFCURVE",
"309 260 OFFCURVE",
"309 228 CURVE SMOOTH",
"309 172 LINE SMOOTH",
"309 140 OFFCURVE",
"304 73 OFFCURVE",
"216 73 CURVE SMOOTH",
"148 73 OFFCURVE",
"133 122 OFFCURVE",
"133 174 CURVE SMOOTH",
"133 190 OFFCURVE",
"134 207 OFFCURVE",
"136 222 CURVE",
"38 222 LINE"
);
}
);
width = 441;
}
);
unicode = 10DE;
},
{
color = 5;
glyphname = "zhar-georgian";
lastChange = "2017-03-22 11:30:35 +0000";
layers = (
{
backgroundImage = {
crop = "{{0, 0}, {2048, 414}}";
imagePath = shrift.jpg;
locked = "1";
transform = "{8.792, 0, 0, 8.792, -8021, -822}";
};
layerId = "A550F09D-1C56-42E6-BD18-3147F7934E1A";
name = Regular;
paths = (
{
closed = 1;
nodes = (
"36 204 OFFCURVE",
"34 187 OFFCURVE",
"34 171 CURVE SMOOTH",
"34 52 OFFCURVE",
"99 -12 OFFCURVE",
"216 -12 CURVE SMOOTH",
"334 -12 OFFCURVE",
"407 55 OFFCURVE",
"407 172 CURVE SMOOTH",
"407 710 LINE",
"309 710 LINE",
"284 651 OFFCURVE",
"180 639 OFFCURVE",
"123 639 CURVE",
"118 623 LINE",
"145 600 OFFCURVE",
"155 572 OFFCURVE",
"155 538 CURVE SMOOTH",
"155 499 OFFCURVE",
"138 472 OFFCURVE",
"100 471 CURVE SMOOTH",
"83 471 OFFCURVE",
"62 477 OFFCURVE",
"47 488 CURVE",
"44 486 LINE",
"44 407 LINE",
"60 394 OFFCURVE",
"87 385 OFFCURVE",
"114 385 CURVE SMOOTH",
"196 385 OFFCURVE",
"238 445 OFFCURVE",
"238 517 CURVE SMOOTH",
"238 536 OFFCURVE",
"236 557 OFFCURVE",
"225 575 CURVE",
"225 577 LINE",
"241 577 OFFCURVE",
"282 585 OFFCURVE",
"305 606 CURVE",
"306 607 OFFCURVE",
"307 606 OFFCURVE",
"308 607 CURVE",
"308 172 LINE",
"308 140 OFFCURVE",
"304 73 OFFCURVE",
"216 73 CURVE SMOOTH",
"148 73 OFFCURVE",
"133 122 OFFCURVE",
"133 174 CURVE SMOOTH",
"133 190 OFFCURVE",
"134 207 OFFCURVE",
"136 222 CURVE",
"40 222 LINE"
);
}
);
width = 441;
}
);
unicode = 10DF;
},
{
color = 5;
glyphname = "rae-georgian";
lastChange = "2017-03-22 11:33:26 +0000";
layers = (
{
backgroundImage = {
crop = "{{0, 0}, {2048, 414}}";
imagePath = shrift.jpg;
locked = "1";
transform = "{8.613, 0, 0, 8.551, -8298, -782}";
};
layerId = "A550F09D-1C56-42E6-BD18-3147F7934E1A";
name = Regular;
paths = (
{
closed = 1;
nodes = (
"34 75 OFFCURVE",
"36 25 OFFCURVE",
"41 0 CURVE",
"139 0 LINE",
"134 26 OFFCURVE",
"132 77 OFFCURVE",
"132 105 CURVE SMOOTH",
"132 189 LINE SMOOTH",
"132 250 OFFCURVE",
"154 322 OFFCURVE",
"230 322 CURVE SMOOTH",
"318 322 OFFCURVE",
"328 250 OFFCURVE",
"328 189 CURVE SMOOTH",
"328 143 OFFCURVE",
"322 34 OFFCURVE",
"301 2 CURVE",
"301 0 LINE",
"399 0 LINE",
"421 33 OFFCURVE",
"427 142 OFFCURVE",
"427 189 CURVE SMOOTH",
"427 337 OFFCURVE",
"356 408 OFFCURVE",
"230 408 CURVE SMOOTH",
"218 408 OFFCURVE",
"209 407 OFFCURVE",
"198 406 CURVE",
"198 408 OFFCURVE",
"196 406 OFFCURVE",
"198 408 CURVE SMOOTH",
"247 481 OFFCURVE",
"347 563 OFFCURVE",
"347 710 CURVE",
"249 710 LINE",
"247 602 OFFCURVE",
"189 542 OFFCURVE",
"157 497 CURVE SMOOTH",
"121 446 OFFCURVE",
"41 346 OFFCURVE",
"34 208 CURVE SMOOTH",
"34 189 LINE",
"34 101 LINE SMOOTH"
);
}
);
width = 461;
}
);
unicode = 10E0;
},
{
color = 5;
glyphname = "san-georgian";
lastChange = "2016-09-03 10:54:57 +0000";
layers = (
{
backgroundImage = {
crop = "{{0, 0}, {2048, 414}}";
imagePath = shrift.jpg;
locked = "1";
transform = "{8.792, 0, 0, 8.792, -8974, -821}";
};
layerId = "A550F09D-1C56-42E6-BD18-3147F7934E1A";
name = Regular;
paths = (
{
closed = 1;
nodes = (
"132 239 OFFCURVE",
"132 611 OFFCURVE",
"132 710 CURVE",
"34 710 LINE",
"34 172 LINE SMOOTH",
"34 55 OFFCURVE",
"107 -12 OFFCURVE",
"225 -12 CURVE SMOOTH",
"344 -12 OFFCURVE",
"417 55 OFFCURVE",
"417 206 CURVE SMOOTH",
"417 308 OFFCURVE",
"381 326 OFFCURVE",
"398 398 CURVE",
"306 399 LINE",
"282 335 OFFCURVE",
"319 289 OFFCURVE",
"319 206 CURVE SMOOTH",
"319 143 OFFCURVE",
"314 73 OFFCURVE",
"225 73 CURVE SMOOTH",
"137 73 OFFCURVE",
"132 140 OFFCURVE",
"132 172 CURVE SMOOTH"
);
}
);
width = 451;
}
);
unicode = 10E1;
},
{
color = 5;
glyphname = "tar-georgian";
lastChange = "2017-03-22 11:35:46 +0000";
layers = (
{
backgroundImage = {
crop = "{{0, 0}, {2048, 414}}";
imagePath = shrift.jpg;
locked = "1";
transform = "{8.712, 0, 0, 8.650, -9348, -793}";
};
layerId = "A550F09D-1C56-42E6-BD18-3147F7934E1A";
name = Regular;
paths = (
{
closed = 1;
nodes = (
"34 55 OFFCURVE",
"117 -12 OFFCURVE",
"236 -12 CURVE SMOOTH",
"345 -12 OFFCURVE",
"428 55 OFFCURVE",
"428 206 CURVE SMOOTH",
"428 319 OFFCURVE",
"381 365 OFFCURVE",
"333 398 CURVE SMOOTH",
"231 469 LINE SMOOTH",
"189 498 OFFCURVE",
"174 520 OFFCURVE",
"174 563 CURVE SMOOTH",
"174 607 OFFCURVE",
"193 642 OFFCURVE",
"237 642 CURVE SMOOTH",
"281 642 OFFCURVE",
"300 607 OFFCURVE",
"300 563 CURVE SMOOTH",
"300 521 OFFCURVE",
"277 495 OFFCURVE",
"263 481 CURVE SMOOTH",
"198 413 LINE SMOOTH",
"180 394 OFFCURVE",
"173 350 OFFCURVE",
"173 304 CURVE",
"258 304 LINE",
"258 333 OFFCURVE",
"261 359 OFFCURVE",
"274 374 CURVE SMOOTH",
"328 436 LINE SMOOTH",
"355 466 OFFCURVE",
"391 499 OFFCURVE",
"391 563 CURVE SMOOTH",
"391 664 OFFCURVE",
"323 722 OFFCURVE",
"237 722 CURVE SMOOTH",
"151 722 OFFCURVE",
"83 664 OFFCURVE",
"83 563 CURVE SMOOTH",
"83 490 OFFCURVE",
"131 442 OFFCURVE",
"193 400 CURVE SMOOTH",
"249 362 LINE SMOOTH",
"297 329 OFFCURVE",
"330 295 OFFCURVE",
"330 206 CURVE SMOOTH",
"330 143 OFFCURVE",
"315 73 OFFCURVE",
"236 73 CURVE SMOOTH",
"147 73 OFFCURVE",
"132 143 OFFCURVE",
"132 206 CURVE SMOOTH",
"132 245 OFFCURVE",
"143 300 OFFCURVE",
"151 326 CURVE",
"58 326 LINE",
"48 296 OFFCURVE",
"34 248 OFFCURVE",
"34 206 CURVE SMOOTH"
);
}
);
width = 462;
}
);
unicode = 10E2;
},
{
color = 5;
glyphname = "un-georgian";
lastChange = "2017-03-22 11:36:32 +0000";
layers = (
{
backgroundImage = {
crop = "{{0, 0}, {2048, 414}}";
imagePath = shrift.jpg;
locked = "1";
transform = "{8.712, 0, 0, 8.650, -9810, -797}";
};
layerId = "A550F09D-1C56-42E6-BD18-3147F7934E1A";
name = Regular;
paths = (
{
closed = 1;
nodes = (
"70 636 LINE SMOOTH",
"98 636 OFFCURVE",
"122 617 OFFCURVE",
"122 578 CURVE SMOOTH",
"122 470 LINE",
"220 470 LINE",
"220 505 LINE",
"220 578 LINE SMOOTH",
"220 617 OFFCURVE",
"243 636 OFFCURVE",
"272 636 CURVE SMOOTH",
"300 636 OFFCURVE",
"324 617 OFFCURVE",
"324 578 CURVE SMOOTH",
"324 172 LINE SMOOTH",
"324 140 OFFCURVE",
"319 73 OFFCURVE",
"231 73 CURVE SMOOTH",
"142 73 OFFCURVE",
"137 155 OFFCURVE",
"137 206 CURVE SMOOTH",
"137 238 OFFCURVE",
"144 273 OFFCURVE",
"153 300 CURVE",
"58 300 LINE",
"47 274 OFFCURVE",
"39 243 OFFCURVE",
"39 206 CURVE SMOOTH",
"39 55 OFFCURVE",
"112 -12 OFFCURVE",
"231 -12 CURVE SMOOTH",
"349 -12 OFFCURVE",
"422 55 OFFCURVE",
"422 172 CURVE SMOOTH",
"422 554 LINE SMOOTH",
"422 657 OFFCURVE",
"375 722 OFFCURVE",
"272 722 CURVE SMOOTH",
"229 722 OFFCURVE",
"187 704 OFFCURVE",
"171 675 CURVE",
"155 704 OFFCURVE",
"113 722 OFFCURVE",
"70 722 CURVE SMOOTH",
"34 722 LINE",
"34 636 LINE"
);
}
);
width = 456;
}
);
unicode = 10E3;
},
{
color = 5;
glyphname = "phar-georgian";
lastChange = "2017-03-22 11:44:07 +0000";
layers = (
{
backgroundImage = {
crop = "{{0, 0}, {2048, 414}}";
imagePath = shrift.jpg;
locked = "1";
transform = "{8.712, 0, 0, 8.650, -10284, -797}";
};
layerId = "A550F09D-1C56-42E6-BD18-3147F7934E1A";
name = Regular;
paths = (
{
closed = 1;
nodes = (
"34 468 OFFCURVE",
"94 424 OFFCURVE",
"169 424 CURVE SMOOTH",
"258 424 OFFCURVE",
"304 468 OFFCURVE",
"304 563 CURVE SMOOTH",
"304 593 LINE SMOOTH",
"304 605 OFFCURVE",
"303 617 OFFCURVE",
"302 627 CURVE",
"307 638 OFFCURVE",
"322 646 OFFCURVE",
"339 646 CURVE SMOOTH",
"367 646 OFFCURVE",
"385 624 OFFCURVE",
"385 585 CURVE SMOOTH",
"385 526 LINE SMOOTH",
"385 496 OFFCURVE",
"375 429 OFFCURVE",
"308 429 CURVE",
"292 429 LINE",
"292 344 LINE",
"310 344 LINE",
"374 344 OFFCURVE",
"385 294 OFFCURVE",
"385 265 CURVE SMOOTH",
"385 172 LINE SMOOTH",
"385 140 OFFCURVE",
"380 73 OFFCURVE",
"292 73 CURVE SMOOTH",
"203 73 OFFCURVE",
"204 158 OFFCURVE",
"212 222 CURVE",
"114 222 LINE",
"94 71 OFFCURVE",
"159 -12 OFFCURVE",
"292 -12 CURVE SMOOTH",
"410 -12 OFFCURVE",
"483 55 OFFCURVE",
"483 172 CURVE SMOOTH",
"483 245 LINE SMOOTH",
"483 307 OFFCURVE",
"465 363 OFFCURVE",
"406 389 CURVE",
"451 416 OFFCURVE",
"483 454 OFFCURVE",
"483 526 CURVE SMOOTH",
"483 554 LINE SMOOTH",
"483 657 OFFCURVE",
"449 722 OFFCURVE",
"348 722 CURVE SMOOTH",
"314 722 OFFCURVE",
"279 706 OFFCURVE",
"262 680 CURVE",
"244 706 OFFCURVE",
"209 722 OFFCURVE",
"169 722 CURVE SMOOTH",
"94 722 OFFCURVE",
"34 678 OFFCURVE",
"34 583 CURVE SMOOTH",
"34 563 LINE SMOOTH"
);
},
{
closed = 1;
nodes = (
"112 583 LINE SMOOTH",
"112 617 OFFCURVE",
"128 646 OFFCURVE",
"169 646 CURVE",
"210 646 OFFCURVE",
"226 617 OFFCURVE",
"226 583 CURVE SMOOTH",
"226 563 LINE SMOOTH",
"226 529 OFFCURVE",
"210 500 OFFCURVE",
"169 500 CURVE SMOOTH",
"128 500 OFFCURVE",
"112 529 OFFCURVE",
"112 563 CURVE SMOOTH"
);
}
);
width = 517;
}
);
unicode = 10E4;
},
{
color = 5;
glyphname = "khar-georgian";
lastChange = "2017-03-22 11:44:15 +0000";
layers = (
{
backgroundImage = {
crop = "{{0, 0}, {2048, 414}}";
imagePath = shrift.jpg;
locked = "1";
transform = "{8.792, 0, 0, 8.792, -10902, -830}";
};
layerId = "A550F09D-1C56-42E6-BD18-3147F7934E1A";
name = Regular;
paths = (
{
closed = 1;
nodes = (
"34 52 OFFCURVE",
"99 -12 OFFCURVE",
"216 -12 CURVE SMOOTH",
"334 -12 OFFCURVE",
"407 55 OFFCURVE",
"407 172 CURVE SMOOTH",
"407 710 LINE",
"309 710 LINE",
"309 588 LINE",
"307 588 LINE",
"285 596 OFFCURVE",
"263 598 OFFCURVE",
"239 598 CURVE SMOOTH",
"146 598 OFFCURVE",
"71 537 OFFCURVE",
"71 444 CURVE SMOOTH",
"71 408 LINE",
"169 408 LINE",
"169 453 LINE SMOOTH",
"169 492 OFFCURVE",
"195 512 OFFCURVE",
"239 512 CURVE SMOOTH",
"276 512 OFFCURVE",
"295 506 OFFCURVE",
"309 497 CURVE",
"309 172 LINE SMOOTH",
"309 140 OFFCURVE",
"304 73 OFFCURVE",
"216 73 CURVE SMOOTH",
"148 73 OFFCURVE",
"133 122 OFFCURVE",
"133 174 CURVE SMOOTH",
"133 190 OFFCURVE",
"134 207 OFFCURVE",
"136 222 CURVE",
"38 222 LINE",
"36 204 OFFCURVE",
"34 187 OFFCURVE",
"34 171 CURVE SMOOTH"
);
}
);
width = 441;
}
);
unicode = 10E5;
},
{
color = 5;
glyphname = "ghan-georgian";
lastChange = "2016-09-03 11:27:30 +0000";
layers = (
{
backgroundImage = {
crop = "{{0, 0}, {2048, 414}}";
imagePath = shrift.jpg;
locked = "1";
transform = "{8.792, 0, 0, 8.792, -11354, -808}";
};
layerId = "A550F09D-1C56-42E6-BD18-3147F7934E1A";
name = Regular;
paths = (
{
closed = 1;
nodes = (
"515 0 LINE",
"507 86 OFFCURVE",
"403 178 OFFCURVE",
"264 247 CURVE SMOOTH",
"240 259 OFFCURVE",
"132 287 OFFCURVE",
"132 415 CURVE SMOOTH",
"132 537 LINE SMOOTH",
"132 569 OFFCURVE",
"132 636 OFFCURVE",
"191 636 CURVE SMOOTH",
"251 636 OFFCURVE",
"251 569 OFFCURVE",
"251 537 CURVE SMOOTH",
"251 482 LINE",
"349 482 LINE",
"349 537 LINE SMOOTH",
"349 569 OFFCURVE",
"349 636 OFFCURVE",
"408 636 CURVE SMOOTH",
"468 636 OFFCURVE",
"468 569 OFFCURVE",
"468 537 CURVE SMOOTH",
"468 519 LINE SMOOTH",
"468 476 OFFCURVE",
"452 417 OFFCURVE",
"430 385 CURVE",
"430 382 LINE",
"530 382 LINE",
"557 419 OFFCURVE",
"566 474 OFFCURVE",
"566 519 CURVE SMOOTH",
"566 537 LINE SMOOTH",
"566 654 OFFCURVE",
"515 722 OFFCURVE",
"408 722 CURVE SMOOTH",
"361 722 OFFCURVE",
"317 695 OFFCURVE",
"299 661 CURVE",
"282 695 OFFCURVE",
"238 722 OFFCURVE",
"191 722 CURVE SMOOTH",
"84 722 OFFCURVE",
"34 654 OFFCURVE",
"34 537 CURVE SMOOTH",
"34 436 LINE SMOOTH",
"34 389 OFFCURVE",
"43 340 OFFCURVE",
"69 305 CURVE",
"58 308 OFFCURVE",
"41 309 OFFCURVE",
"34 309 CURVE",
"34 223 LINE",
"190 223 OFFCURVE",
"392 100 OFFCURVE",
"416 0 CURVE"
);
}
);
width = 600;
}
);
unicode = 10E6;
},
{
color = 5;
glyphname = "qar-georgian";
lastChange = "2017-03-04 09:37:52 +0000";
layers = (
{
backgroundImage = {
crop = "{{0, 0}, {2048, 414}}";
imagePath = shrift.jpg;
locked = "1";
transform = "{8.712, 0, 0, 8.650, -11832, -803}";
};
layerId = "A550F09D-1C56-42E6-BD18-3147F7934E1A";
name = Regular;
paths = (
{
closed = 1;
nodes = (
"37 204 OFFCURVE",
"35 187 OFFCURVE",
"35 171 CURVE SMOOTH",
"35 52 OFFCURVE",
"100 -12 OFFCURVE",
"217 -12 CURVE SMOOTH",
"335 -12 OFFCURVE",
"408 55 OFFCURVE",
"408 172 CURVE SMOOTH",
"408 710 LINE",
"310 710 LINE",
"310 565 LINE SMOOTH",
"310 533 OFFCURVE",
"305 466 OFFCURVE",
"217 466 CURVE SMOOTH",
"150 466 OFFCURVE",
"133 514 OFFCURVE",
"133 565 CURVE SMOOTH",
"133 606 OFFCURVE",
"146 662 OFFCURVE",
"160 710 CURVE",
"62 710 LINE",
"48 659 OFFCURVE",
"34 605 OFFCURVE",
"34 556 CURVE SMOOTH",
"34 442 OFFCURVE",
"98 381 OFFCURVE",
"213 381 CURVE SMOOTH",
"239 381 OFFCURVE",
"284 389 OFFCURVE",
"308 409 CURVE",
"310 409 LINE",
"310 172 LINE SMOOTH",
"310 140 OFFCURVE",
"305 73 OFFCURVE",
"217 73 CURVE SMOOTH",
"149 73 OFFCURVE",
"134 122 OFFCURVE",
"134 174 CURVE SMOOTH",
"134 190 OFFCURVE",
"135 207 OFFCURVE",
"137 222 CURVE",
"39 222 LINE"
);
}
);
width = 442;
}
);
unicode = 10E7;
},
{
color = 5;
glyphname = "shin-georgian";
lastChange = "2017-03-22 11:41:42 +0000";
layers = (
{
backgroundImage = {
crop = "{{0, 0}, {2048, 414}}";
imagePath = shrift.jpg;
locked = "1";
transform = "{8.712, 0, 0, 8.650, -12268, -802}";
};
layerId = "A550F09D-1C56-42E6-BD18-3147F7934E1A";
name = Regular;
paths = (
{
closed = 1;
nodes = (
"257 722 OFFCURVE",
"211 706 OFFCURVE",
"190 681 CURVE",
"188 681 LINE",
"159 710 OFFCURVE",
"131 717 OFFCURVE",
"68 717 CURVE",
"34 717 LINE",
"34 626 LINE",
"64 626 LINE",
"124 626 OFFCURVE",
"140 607 OFFCURVE",
"140 551 CURVE SMOOTH",
"140 500 LINE",
"238 500 LINE",
"238 551 LINE SMOOTH",
"238 602 OFFCURVE",
"249 636 OFFCURVE",
"290 636 CURVE SMOOTH",
"331 636 OFFCURVE",
"342 602 OFFCURVE",
"342 551 CURVE SMOOTH",
"342 393 LINE",
"340 393 LINE",
"317 413 OFFCURVE",
"277 424 OFFCURVE",
"244 424 CURVE SMOOTH",
"132 424 OFFCURVE",
"57 356 OFFCURVE",
"57 206 CURVE SMOOTH",
"57 55 OFFCURVE",
"130 -12 OFFCURVE",
"249 -12 CURVE SMOOTH",
"367 -12 OFFCURVE",
"440 55 OFFCURVE",
"440 172 CURVE SMOOTH",
"440 537 LINE SMOOTH",
"440 654 OFFCURVE",
"406 722 OFFCURVE",
"296 722 CURVE SMOOTH"
);
},
{
closed = 1;
nodes = (
"342 140 OFFCURVE",
"337 73 OFFCURVE",
"249 73 CURVE SMOOTH",
"160 73 OFFCURVE",
"155 143 OFFCURVE",
"155 206 CURVE SMOOTH",
"155 269 OFFCURVE",
"160 338 OFFCURVE",
"249 338 CURVE SMOOTH",
"337 338 OFFCURVE",
"342 271 OFFCURVE",
"342 239 CURVE SMOOTH",
"342 172 LINE SMOOTH"
);
}
);
width = 474;
}
);
unicode = 10E8;
},
{
color = 5;
glyphname = "chin-georgian";
lastChange = "2017-03-04 09:37:30 +0000";
layers = (
{
backgroundImage = {
crop = "{{0, 0}, {2048, 414}}";
imagePath = shrift.jpg;
locked = "1";
transform = "{8.712, 0, 0, 8.650, -12759, -797}";
};
layerId = "A550F09D-1C56-42E6-BD18-3147F7934E1A";
name = Regular;
paths = (
{
closed = 1;
nodes = (
"203 329 OFFCURVE",
"158 321 OFFCURVE",
"134 301 CURVE",
"132 301 LINE",
"132 327 LINE",
"191 373 OFFCURVE",
"234 405 OFFCURVE",
"278 452 CURVE SMOOTH",
"319 496 OFFCURVE",
"343 538 OFFCURVE",
"343 600 CURVE SMOOTH",
"343 669 OFFCURVE",
"290 722 OFFCURVE",
"211 722 CURVE SMOOTH",
"90 722 OFFCURVE",
"34 643 OFFCURVE",
"34 526 CURVE SMOOTH",
"34 0 LINE",
"132 0 LINE",
"132 145 LINE SMOOTH",
"132 177 OFFCURVE",
"137 244 OFFCURVE",
"225 244 CURVE SMOOTH",
"292 244 OFFCURVE",
"309 196 OFFCURVE",
"309 145 CURVE SMOOTH",
"309 104 OFFCURVE",
"296 48 OFFCURVE",
"282 0 CURVE",
"380 0 LINE",
"394 51 OFFCURVE",
"408 105 OFFCURVE",
"408 154 CURVE SMOOTH",
"408 268 OFFCURVE",
"344 329 OFFCURVE",
"229 329 CURVE SMOOTH"
);
},
{
closed = 1;
nodes = (
"132 570 OFFCURVE",
"141 637 OFFCURVE",
"204 637 CURVE SMOOTH",
"231 637 OFFCURVE",
"248 615 OFFCURVE",
"248 589 CURVE SMOOTH",
"248 560 OFFCURVE",
"244 544 OFFCURVE",
"205 498 CURVE SMOOTH",
"184 473 OFFCURVE",
"157 447 OFFCURVE",
"132 424 CURVE",
"132 538 LINE SMOOTH"
);
}
);
width = 442;
}
);
unicode = 10E9;
},
{
color = 5;
glyphname = "can-georgian";
lastChange = "2016-10-22 07:09:06 +0000";
layers = (
{
backgroundImage = {
crop = "{{0, 0}, {2048, 414}}";
imagePath = shrift.jpg;
locked = "1";
transform = "{8.712, 0, 0, 8.650, -13207, -791}";
};
layerId = "A550F09D-1C56-42E6-BD18-3147F7934E1A";
name = Regular;
paths = (
{
closed = 1;
nodes = (
"355 439 LINE",
"406 461 OFFCURVE",
"413 512 OFFCURVE",
"413 551 CURVE SMOOTH",
"413 643 OFFCURVE",
"350 654 OFFCURVE",
"350 710 CURVE",
"252 710 LINE",
"252 621 OFFCURVE",
"315 624 OFFCURVE",
"315 556 CURVE SMOOTH",
"315 496 OFFCURVE",
"304 483 OFFCURVE",
"252 481 CURVE",
"252 394 LINE",
"304 392 OFFCURVE",
"315 369 OFFCURVE",
"315 309 CURVE SMOOTH",
"315 179 LINE SMOOTH",
"315 99 OFFCURVE",
"276 74 OFFCURVE",
"222 74 CURVE SMOOTH",
"154 74 OFFCURVE",
"132 128 OFFCURVE",
"132 227 CURVE",
"132 425 LINE SMOOTH",
"132 522 OFFCURVE",
"149 641 OFFCURVE",
"185 710 CURVE",
"87 710 LINE",
"49 641 OFFCURVE",
"34 522 OFFCURVE",
"34 425 CURVE SMOOTH",
"34 226 LINE SMOOTH",
"34 40 OFFCURVE",
"112 -12 OFFCURVE",
"222 -12 CURVE SMOOTH",
"335 -12 OFFCURVE",
"406 49 OFFCURVE",
"413 156 CURVE",
"413 315 LINE SMOOTH",
"413 372 OFFCURVE",
"406 415 OFFCURVE",
"355 437 CURVE"
);
}
);
width = 447;
}
);
unicode = 10EA;
},
{
color = 5;
glyphname = "jil-georgian";
lastChange = "2017-03-22 11:39:30 +0000";
layers = (
{
backgroundImage = {
crop = "{{0, 0}, {2048, 414}}";
imagePath = shrift.jpg;
locked = "1";
transform = "{8.944, 0, 0, 8.944, -14027, -826}";
};
layerId = "A550F09D-1C56-42E6-BD18-3147F7934E1A";
name = Regular;
paths = (
{
closed = 1;
nodes = (
"297 722 LINE",
"312 687 OFFCURVE",
"319 622 OFFCURVE",
"319 553 CURVE SMOOTH",
"319 423 LINE",
"317 423 LINE",
"294 443 OFFCURVE",
"254 454 OFFCURVE",
"221 454 CURVE SMOOTH",
"109 454 OFFCURVE",
"34 386 OFFCURVE",
"34 221 CURVE SMOOTH",
"34 55 OFFCURVE",
"107 -12 OFFCURVE",
"226 -12 CURVE SMOOTH",
"344 -12 OFFCURVE",
"417 55 OFFCURVE",
"417 172 CURVE SMOOTH",
"417 553 LINE SMOOTH",
"417 622 OFFCURVE",
"410 687 OFFCURVE",
"391 722 CURVE"
);
},
{
closed = 1;
nodes = (
"319 172 LINE SMOOTH",
"319 140 OFFCURVE",
"314 73 OFFCURVE",
"226 73 CURVE SMOOTH",
"137 73 OFFCURVE",
"132 143 OFFCURVE",
"132 221 CURVE SMOOTH",
"132 299 OFFCURVE",
"137 368 OFFCURVE",
"226 368 CURVE SMOOTH",
"314 368 OFFCURVE",
"319 301 OFFCURVE",
"319 269 CURVE SMOOTH"
);
},
{
closed = 1;
nodes = (
"297 722 LINE",
"312 687 OFFCURVE",
"319 622 OFFCURVE",
"319 553 CURVE SMOOTH",
"319 423 LINE",
"317 423 LINE",
"294 443 OFFCURVE",
"254 454 OFFCURVE",
"221 454 CURVE SMOOTH",
"109 454 OFFCURVE",
"34 386 OFFCURVE",
"34 221 CURVE SMOOTH",
"34 55 OFFCURVE",
"107 -12 OFFCURVE",
"226 -12 CURVE SMOOTH",
"344 -12 OFFCURVE",
"417 55 OFFCURVE",
"417 172 CURVE SMOOTH",
"417 553 LINE SMOOTH",
"417 622 OFFCURVE",
"410 687 OFFCURVE",
"391 722 CURVE"
);
},
{
closed = 1;
nodes = (
"319 172 LINE SMOOTH",
"319 140 OFFCURVE",
"314 73 OFFCURVE",
"226 73 CURVE SMOOTH",
"137 73 OFFCURVE",
"132 143 OFFCURVE",
"132 221 CURVE SMOOTH",
"132 299 OFFCURVE",
"137 368 OFFCURVE",
"226 368 CURVE SMOOTH",
"314 368 OFFCURVE",
"319 301 OFFCURVE",
"319 269 CURVE SMOOTH"
);
}
);
width = 451;
}
);
unicode = 10EB;
},
{
color = 5;
glyphname = "cil-georgian";
lastChange = "2017-03-04 09:36:46 +0000";
layers = (
{
backgroundImage = {
crop = "{{0, 0}, {2048, 414}}";
imagePath = shrift.jpg;
locked = "1";
transform = "{8.712, 0, 0, 8.650, -14134, -778}";
};
layerId = "A550F09D-1C56-42E6-BD18-3147F7934E1A";
name = Regular;
paths = (
{
closed = 1;
nodes = (
"68 722 OFFCURVE",
"34 654 OFFCURVE",
"34 537 CURVE SMOOTH",
"34 172 LINE SMOOTH",
"34 55 OFFCURVE",
"107 -12 OFFCURVE",
"225 -12 CURVE SMOOTH",
"344 -12 OFFCURVE",
"417 55 OFFCURVE",
"417 206 CURVE SMOOTH",
"417 356 OFFCURVE",
"342 424 OFFCURVE",
"230 424 CURVE SMOOTH",
"197 424 OFFCURVE",
"157 413 OFFCURVE",
"134 393 CURVE",
"132 393 LINE",
"132 551 LINE SMOOTH",
"132 602 OFFCURVE",
"143 636 OFFCURVE",
"184 636 CURVE SMOOTH",
"225 636 OFFCURVE",
"236 602 OFFCURVE",
"236 551 CURVE SMOOTH",
"236 500 LINE",
"334 500 LINE",
"334 551 LINE SMOOTH",
"334 607 OFFCURVE",
"350 626 OFFCURVE",
"410 626 CURVE",
"440 626 LINE",
"440 717 LINE",
"406 717 LINE",
"343 717 OFFCURVE",
"315 710 OFFCURVE",
"286 681 CURVE",
"284 681 LINE",
"263 706 OFFCURVE",
"217 722 OFFCURVE",
"178 722 CURVE SMOOTH"
);
},
{
closed = 1;
nodes = (
"132 239 LINE SMOOTH",
"132 271 OFFCURVE",
"137 338 OFFCURVE",
"225 338 CURVE SMOOTH",
"314 338 OFFCURVE",
"319 269 OFFCURVE",
"319 206 CURVE SMOOTH",
"319 143 OFFCURVE",
"314 73 OFFCURVE",
"225 73 CURVE SMOOTH",
"137 73 OFFCURVE",
"132 140 OFFCURVE",
"132 172 CURVE SMOOTH"
);
}
);
width = 474;
}
);
unicode = 10EC;
},
{
color = 5;
glyphname = "char-georgian";
lastChange = "2017-03-22 11:39:20 +0000";
layers = (
{
backgroundImage = {
crop = "{{0, 0}, {2048, 414}}";
imagePath = shrift.jpg;
locked = "1";
transform = "{8.712, 0, 0, 8.650, -14529, -775}";
};
layerId = "A550F09D-1C56-42E6-BD18-3147F7934E1A";
name = Regular;
paths = (
{
closed = 1;
nodes = (
"452 403 LINE",
"485 417 OFFCURVE",
"517 461 OFFCURVE",
"517 533 CURVE",
"427 533 LINE",
"427 499 OFFCURVE",
"415 480 OFFCURVE",
"398 472 CURVE",
"396 472 LINE",
"396 542 LINE SMOOTH",
"396 622 OFFCURVE",
"394 683 OFFCURVE",
"377 722 CURVE",
"279 722 LINE",
"296 684 OFFCURVE",
"298 616 OFFCURVE",
"298 537 CURVE",
"296 537 LINE",
"279 546 OFFCURVE",
"240 558 OFFCURVE",
"208 558 CURVE SMOOTH",
"112 558 OFFCURVE",
"55 508 OFFCURVE",
"55 413 CURVE SMOOTH",
"55 319 OFFCURVE",
"112 269 OFFCURVE",
"208 269 CURVE SMOOTH",
"240 269 OFFCURVE",
"279 282 OFFCURVE",
"296 290 CURVE",
"298 290 LINE",
"298 172 LINE SMOOTH",
"298 140 OFFCURVE",
"297 73 OFFCURVE",
"209 73 CURVE SMOOTH",
"140 73 OFFCURVE",
"117 124 OFFCURVE",
"133 214 CURVE",
"40 214 LINE",
"10 51 OFFCURVE",
"96 -12 OFFCURVE",
"209 -12 CURVE SMOOTH",
"327 -12 OFFCURVE",
"396 55 OFFCURVE",
"396 172 CURVE SMOOTH",
"396 330 LINE",
"398 330 LINE",
"415 323 OFFCURVE",
"427 301 OFFCURVE",
"427 269 CURVE",
"517 269 LINE",
"517 341 OFFCURVE",
"485 387 OFFCURVE",
"452 401 CURVE"
);
},
{
closed = 1;
nodes = (
"283 367 OFFCURVE",
"251 355 OFFCURVE",
"214 355 CURVE SMOOTH",
"166 355 OFFCURVE",
"144 377 OFFCURVE",
"144 414 CURVE SMOOTH",
"144 454 OFFCURVE",
"167 474 OFFCURVE",
"214 474 CURVE SMOOTH",
"253 474 OFFCURVE",
"283 460 OFFCURVE",
"302 443 CURVE",
"302 380 LINE"
);
}
);
width = 551;
}
);
unicode = 10ED;
},
{
color = 5;
glyphname = "xan-georgian";
lastChange = "2016-10-22 07:30:43 +0000";
layers = (
{
backgroundImage = {
crop = "{{0, 0}, {2048, 414}}";
imagePath = shrift.jpg;
locked = "1";
transform = "{8.792, 0, 0, 8.792, -15205, -784}";
};
guideLines = (
{
angle = 269.449;
position = "{135, 630}";
}
);
layerId = "A550F09D-1C56-42E6-BD18-3147F7934E1A";
name = Regular;
paths = (
{
closed = 1;
nodes = (
"34 722 LINE",
"34 172 LINE SMOOTH",
"34 55 OFFCURVE",
"107 -12 OFFCURVE",
"225 -12 CURVE SMOOTH",
"344 -12 OFFCURVE",
"417 55 OFFCURVE",
"417 221 CURVE SMOOTH",
"417 386 OFFCURVE",
"342 454 OFFCURVE",
"230 454 CURVE SMOOTH",
"197 454 OFFCURVE",
"157 443 OFFCURVE",
"134 423 CURVE",
"132 423 LINE",
"132 722 LINE"
);
},
{
closed = 1;
nodes = (
"132 301 OFFCURVE",
"137 368 OFFCURVE",
"225 368 CURVE SMOOTH",
"314 368 OFFCURVE",
"319 299 OFFCURVE",
"319 221 CURVE SMOOTH",
"319 143 OFFCURVE",
"314 73 OFFCURVE",
"225 73 CURVE SMOOTH",
"137 73 OFFCURVE",
"132 140 OFFCURVE",
"132 172 CURVE SMOOTH",
"132 269 LINE SMOOTH"
);
}
);
width = 451;
}
);
unicode = 10EE;
},
{
color = 5;
glyphname = "jhan-georgian";
lastChange = "2017-03-22 11:45:17 +0000";
layers = (
{
backgroundImage = {
crop = "{{0, 0}, {2048, 414}}";
imagePath = shrift.jpg;
locked = "1";
transform = "{8.792, 0, 0, 8.792, -15624, -778}";
};
guideLines = (
{
angle = 179.406;
position = "{378, -12}";
},
{
angle = 90;
position = "{1238, 134}";
}
);
layerId = "A550F09D-1C56-42E6-BD18-3147F7934E1A";
name = Regular;
paths = (
{
closed = 1;
nodes = (
"570 175 LINE",
"578 161 OFFCURVE",
"581 151 OFFCURVE",
"586 138 CURVE SMOOTH",
"598 105 OFFCURVE",
"594 87 OFFCURVE",
"574 80 CURVE SMOOTH",
"554 73 OFFCURVE",
"539 84 OFFCURVE",
"528 116 CURVE SMOOTH",
"441 361 LINE",
"587 502 LINE",
"650 567 OFFCURVE",
"638 633 OFFCURVE",
"590 683 CURVE SMOOTH",
"546 729 OFFCURVE",
"471 730 OFFCURVE",
"429 693 CURVE SMOOTH",
"410 676 OFFCURVE",
"404 665 OFFCURVE",
"398 650 CURVE",
"460 595 LINE",
"464 599 OFFCURVE",
"468 603 OFFCURVE",
"472 607 CURVE",
"498 631 OFFCURVE",
"513 638 OFFCURVE",
"527 623 CURVE SMOOTH",
"542 607 OFFCURVE",
"538 590 OFFCURVE",
"513 566 CURVE SMOOTH",
"405 462 LINE",
"346 627 LINE SMOOTH",
"314 717 OFFCURVE",
"252 737 OFFCURVE",
"179 711 CURVE SMOOTH",
"106 685 OFFCURVE",
"80 623 OFFCURVE",
"106 551 CURVE SMOOTH",
"110 540 OFFCURVE",
"115 528 OFFCURVE",
"122 516 CURVE",
"205 550 LINE",
"201 557 OFFCURVE",
"199 564 OFFCURVE",
"196 572 CURVE SMOOTH",
"184 605 OFFCURVE",
"188 623 OFFCURVE",
"208 630 CURVE SMOOTH",
"228 637 OFFCURVE",
"243 626 OFFCURVE",
"254 594 CURVE SMOOTH",
"327 388 LINE",
"191 258 LINE",
"127 197 LINE",
"161 168 LINE SMOOTH",
"200 134 OFFCURVE",
"207 104 OFFCURVE",
"191 87 CURVE SMOOTH",
"175 70 OFFCURVE",
"154 71 OFFCURVE",
"128 94 CURVE",
"116 106 OFFCURVE",
"107 114 OFFCURVE",
"92 136 CURVE",
"34 73 LINE",
"44 50 OFFCURVE",
"60 32 OFFCURVE",
"74 20 CURVE SMOOTH",
"109 -11 OFFCURVE",
"195 -36 OFFCURVE",
"249 24 CURVE SMOOTH",
"303 83 OFFCURVE",
"291 139 OFFCURVE",
"258 187 CURVE",
"363 288 LINE",
"439 74 LINE",
"473 -9 OFFCURVE",
"531 -27 OFFCURVE",
"603 -1 CURVE SMOOTH",
"678 27 OFFCURVE",
"702 87 OFFCURVE",
"676 159 CURVE SMOOTH",
"671 172 OFFCURVE",
"665 186 OFFCURVE",
"656 199 CURVE"
);
}
);
width = 720;
}
);
unicode = 10EF;
},
{
color = 5;
glyphname = "hae-georgian";
lastChange = "2017-03-22 11:45:36 +0000";
layers = (
{
backgroundImage = {
crop = "{{0, 0}, {2048, 414}}";
imagePath = shrift.jpg;
locked = "1";
transform = "{8.792, 0, 0, 8.792, -16320, -778}";
};
guideLines = (
{
angle = 90;
position = "{223, 424}";
},
{
angle = 90;
position = "{416, 244}";
},
{
angle = 180;
position = "{363, 156}";
}
);
layerId = "A550F09D-1C56-42E6-BD18-3147F7934E1A";
name = Regular;
paths = (
{
closed = 1;
nodes = (
"201 717 LINE",
"201 629 OFFCURVE",
"318 649 OFFCURVE",
"318 597 CURVE SMOOTH",
"318 558 OFFCURVE",
"288 549 OFFCURVE",
"223 549 CURVE",
"223 463 LINE",
"288 463 OFFCURVE",
"318 448 OFFCURVE",
"318 405 CURVE SMOOTH",
"318 362 OFFCURVE",
"288 348 OFFCURVE",
"223 348 CURVE",
"223 262 LINE",
"269 261 OFFCURVE",
"318 262 OFFCURVE",
"318 176 CURVE",
"318 101 OFFCURVE",
"275 74 OFFCURVE",
"221 74 CURVE SMOOTH",
"144 74 OFFCURVE",
"130 135 OFFCURVE",
"130 179 CURVE SMOOTH",
"130 194 OFFCURVE",
"130 211 OFFCURVE",
"132 227 CURVE",
"39 227 LINE",
"36 212 OFFCURVE",
"34 188 OFFCURVE",
"34 179 CURVE",
"34 50 OFFCURVE",
"102 -12 OFFCURVE",
"221 -12 CURVE SMOOTH",
"334 -12 OFFCURVE",
"416 47 OFFCURVE",
"416 176 CURVE SMOOTH",
"416 255 OFFCURVE",
"395 287 OFFCURVE",
"358 305 CURVE",
"358 307 LINE",
"395 323 OFFCURVE",
"416 355 OFFCURVE",
"416 405 CURVE SMOOTH",
"416 455 OFFCURVE",
"395 488 OFFCURVE",
"358 504 CURVE",
"358 506 LINE",
"395 522 OFFCURVE",
"416 558 OFFCURVE",
"416 597 CURVE SMOOTH",
"416 690 OFFCURVE",
"300 681 OFFCURVE",
"299 722 CURVE",
"201 722 LINE"
);
}
);
width = 450;
}
);
unicode = 10F0;
},
{
glyphname = zero;
lastChange = "2017-03-22 13:21:42 +0000";
layers = (
{
layerId = "A550F09D-1C56-42E6-BD18-3147F7934E1A";
name = Regular;
paths = (
{
closed = 1;
nodes = (
"102 720 OFFCURVE",
"34 653 OFFCURVE",
"34 537 CURVE SMOOTH",
"34 173 LINE SMOOTH",
"34 57 OFFCURVE",
"102 -10 OFFCURVE",
"214 -12 CURVE",
"326 -10 OFFCURVE",
"394 57 OFFCURVE",
"394 173 CURVE SMOOTH",
"394 537 LINE SMOOTH",
"394 653 OFFCURVE",
"326 720 OFFCURVE",
"214 722 CURVE"
);
},
{
closed = 1;
nodes = (
"296 142 OFFCURVE",
"295 76 OFFCURVE",
"214 74 CURVE",
"133 76 OFFCURVE",
"132 142 OFFCURVE",
"132 173 CURVE SMOOTH",
"132 537 LINE SMOOTH",
"132 568 OFFCURVE",
"133 634 OFFCURVE",
"214 636 CURVE",
"295 634 OFFCURVE",
"296 568 OFFCURVE",
"296 537 CURVE SMOOTH",
"296 173 LINE SMOOTH"
);
}
);
width = 428;
}
);
unicode = 0030;
},
{
glyphname = one;
lastChange = "2017-03-22 11:48:20 +0000";
layers = (
{
layerId = "A550F09D-1C56-42E6-BD18-3147F7934E1A";
name = Regular;
paths = (
{
closed = 1;
nodes = (
"121 634 OFFCURVE",
"92 588 OFFCURVE",
"34 581 CURVE",
"34 494 LINE",
"61 494 OFFCURVE",
"93 503 OFFCURVE",
"113 521 CURVE",
"115 521 LINE",
"115 0 LINE",
"213 0 LINE",
"213 710 LINE",
"121 710 LINE"
);
}
);
width = 247;
}
);
unicode = 0031;
},
{
glyphname = two;
lastChange = "2017-03-04 09:14:31 +0000";
layers = (
{
layerId = "A550F09D-1C56-42E6-BD18-3147F7934E1A";
name = Regular;
paths = (
{
closed = 1;
nodes = (
"366 374 OFFCURVE",
"401 425 OFFCURVE",
"402 501 CURVE",
"402 537 LINE SMOOTH",
"402 654 OFFCURVE",
"332 722 OFFCURVE",
"218 722 CURVE SMOOTH",
"104 722 OFFCURVE",
"34 654 OFFCURVE",
"34 537 CURVE SMOOTH",
"34 500 LINE",
"132 500 LINE",
"132 537 LINE SMOOTH",
"132 569 OFFCURVE",
"133 636 OFFCURVE",
"218 636 CURVE SMOOTH",
"303 636 OFFCURVE",
"304 569 OFFCURVE",
"304 537 CURVE SMOOTH",
"304 501 LINE SMOOTH",
"304 448 OFFCURVE",
"270 395 OFFCURVE",
"222 346 CURVE SMOOTH",
"149 270 LINE SMOOTH",
"97 215 OFFCURVE",
"51 151 OFFCURVE",
"40 83 CURVE SMOOTH",
"36 59 OFFCURVE",
"34 32 OFFCURVE",
"34 0 CURVE",
"402 0 LINE",
"402 98 LINE",
"149 98 LINE",
"153 139 OFFCURVE",
"179 173 OFFCURVE",
"211 208 CURVE SMOOTH",
"303 306 LINE SMOOTH"
);
}
);
width = 436;
}
);
unicode = 0032;
},
{
glyphname = three;
lastChange = "2017-03-22 11:49:02 +0000";
layers = (
{
layerId = "A550F09D-1C56-42E6-BD18-3147F7934E1A";
name = Regular;
paths = (
{
closed = 1;
nodes = (
"396 636 LINE",
"396 722 LINE",
"52 722 LINE",
"52 636 LINE",
"291 636 LINE",
"159 439 LINE",
"185 364 LINE",
"219 364 LINE",
"282 364 OFFCURVE",
"304 320 OFFCURVE",
"304 265 CURVE SMOOTH",
"304 173 LINE SMOOTH",
"304 141 OFFCURVE",
"303 74 OFFCURVE",
"218 74 CURVE SMOOTH",
"133 74 OFFCURVE",
"132 141 OFFCURVE",
"132 173 CURVE SMOOTH",
"132 219 LINE",
"34 219 LINE",
"34 173 LINE SMOOTH",
"34 56 OFFCURVE",
"104 -12 OFFCURVE",
"218 -12 CURVE SMOOTH",
"332 -12 OFFCURVE",
"402 56 OFFCURVE",
"402 173 CURVE SMOOTH",
"402 265 LINE SMOOTH",
"402 365 OFFCURVE",
"352 428 OFFCURVE",
"267 445 CURVE"
);
}
);
width = 436;
}
);
unicode = 0033;
},
{
glyphname = four;
lastChange = "2017-03-22 11:49:52 +0000";
layers = (
{
layerId = "A550F09D-1C56-42E6-BD18-3147F7934E1A";
name = Regular;
paths = (
{
closed = 1;
nodes = (
"375 252 LINE",
"375 710 LINE",
"277 710 LINE",
"34 252 LINE",
"34 154 LINE",
"277 154 LINE",
"277 0 LINE",
"375 0 LINE",
"375 154 LINE",
"442 154 LINE",
"442 252 LINE"
);
},
{
closed = 1;
nodes = (
"274 518 LINE",
"277 518 LINE",
"277 252 LINE",
"132 252 LINE"
);
}
);
width = 476;
}
);
unicode = 0034;
},
{
glyphname = five;
lastChange = "2017-03-04 09:16:54 +0000";
layers = (
{
layerId = "A550F09D-1C56-42E6-BD18-3147F7934E1A";
name = Regular;
paths = (
{
closed = 1;
nodes = (
"386 722 LINE",
"34 722 LINE",
"34 364 LINE",
"132 364 LINE",
"143 380 OFFCURVE",
"176 396 OFFCURVE",
"217 396 CURVE",
"270 396 OFFCURVE",
"304 370 OFFCURVE",
"304 305 CURVE SMOOTH",
"304 294 OFFCURVE",
"304 247 OFFCURVE",
"304 224 CURVE SMOOTH",
"304 173 LINE SMOOTH",
"304 141 OFFCURVE",
"303 74 OFFCURVE",
"218 74 CURVE SMOOTH",
"133 74 OFFCURVE",
"132 141 OFFCURVE",
"132 173 CURVE SMOOTH",
"132 224 LINE",
"34 224 LINE",
"34 173 LINE SMOOTH",
"34 56 OFFCURVE",
"104 -12 OFFCURVE",
"218 -12 CURVE SMOOTH",
"332 -12 OFFCURVE",
"403 56 OFFCURVE",
"403 173 CURVE SMOOTH",
"403 210 OFFCURVE",
"403 266 OFFCURVE",
"403 304 CURVE SMOOTH",
"403 398 OFFCURVE",
"345 482 OFFCURVE",
"217 482 CURVE",
"187 482 OFFCURVE",
"149 471 OFFCURVE",
"132 462 CURVE",
"132 624 LINE",
"386 624 LINE"
);
}
);
width = 437;
}
);
unicode = 0035;
},
{
glyphname = six;
lastChange = "2017-03-04 09:17:20 +0000";
layers = (
{
layerId = "A550F09D-1C56-42E6-BD18-3147F7934E1A";
name = Regular;
paths = (
{
closed = 1;
nodes = (
"34 56 OFFCURVE",
"104 -12 OFFCURVE",
"218 -12 CURVE SMOOTH",
"332 -12 OFFCURVE",
"402 56 OFFCURVE",
"402 173 CURVE SMOOTH",
"402 277 LINE SMOOTH",
"402 394 OFFCURVE",
"332 462 OFFCURVE",
"218 462 CURVE SMOOTH",
"104 462 OFFCURVE",
"34 394 OFFCURVE",
"34 277 CURVE SMOOTH",
"34 173 LINE SMOOTH"
);
},
{
closed = 1;
nodes = (
"132 277 LINE SMOOTH",
"132 309 OFFCURVE",
"133 376 OFFCURVE",
"218 376 CURVE SMOOTH",
"303 376 OFFCURVE",
"304 309 OFFCURVE",
"304 277 CURVE SMOOTH",
"304 173 LINE SMOOTH",
"304 141 OFFCURVE",
"303 74 OFFCURVE",
"218 74 CURVE SMOOTH",
"133 74 OFFCURVE",
"132 141 OFFCURVE",
"132 173 CURVE SMOOTH"
);
},
{
closed = 1;
nodes = (
"402 515 LINE",
"402 537 LINE SMOOTH",
"402 654 OFFCURVE",
"332 722 OFFCURVE",
"218 722 CURVE SMOOTH",
"104 722 OFFCURVE",
"34 654 OFFCURVE",
"34 537 CURVE SMOOTH",
"34 255 LINE",
"132 415 LINE",
"132 537 LINE SMOOTH",
"132 569 OFFCURVE",
"133 636 OFFCURVE",
"218 636 CURVE SMOOTH",
"303 636 OFFCURVE",
"304 569 OFFCURVE",
"304 537 CURVE SMOOTH",
"304 515 LINE"
);
}
);
width = 436;
}
);
unicode = 0036;
},
{
glyphname = seven;
lastChange = "2017-03-22 11:51:24 +0000";
layers = (
{
layerId = "A550F09D-1C56-42E6-BD18-3147F7934E1A";
name = Regular;
paths = (
{
closed = 1;
nodes = (
"335 610 LINE",
"92 0 LINE",
"199 0 LINE",
"448 627 LINE",
"448 710 LINE",
"34 710 LINE",
"34 612 LINE",
"335 612 LINE"
);
}
);
width = 482;
}
);
unicode = 0037;
},
{
glyphname = eight;
lastChange = "2017-03-04 09:18:16 +0000";
layers = (
{
layerId = "A550F09D-1C56-42E6-BD18-3147F7934E1A";
name = Regular;
paths = (
{
closed = 1;
nodes = (
"34 56 OFFCURVE",
"104 -12 OFFCURVE",
"218 -12 CURVE SMOOTH",
"332 -12 OFFCURVE",
"402 56 OFFCURVE",
"402 173 CURVE SMOOTH",
"402 228 LINE SMOOTH",
"402 345 OFFCURVE",
"332 413 OFFCURVE",
"218 413 CURVE SMOOTH",
"104 413 OFFCURVE",
"34 345 OFFCURVE",
"34 228 CURVE SMOOTH",
"34 173 LINE SMOOTH"
);
},
{
closed = 1;
nodes = (
"132 228 LINE SMOOTH",
"132 260 OFFCURVE",
"133 327 OFFCURVE",
"218 327 CURVE SMOOTH",
"303 327 OFFCURVE",
"304 260 OFFCURVE",
"304 228 CURVE SMOOTH",
"304 173 LINE SMOOTH",
"304 141 OFFCURVE",
"303 74 OFFCURVE",
"218 74 CURVE SMOOTH",
"133 74 OFFCURVE",
"132 141 OFFCURVE",
"132 173 CURVE SMOOTH"
);
},
{
closed = 1;
nodes = (
"39 395 OFFCURVE",
"108 327 OFFCURVE",
"218 327 CURVE SMOOTH",
"328 327 OFFCURVE",
"397 395 OFFCURVE",
"397 512 CURVE SMOOTH",
"397 537 LINE SMOOTH",
"397 654 OFFCURVE",
"328 722 OFFCURVE",
"218 722 CURVE SMOOTH",
"108 722 OFFCURVE",
"39 654 OFFCURVE",
"39 537 CURVE SMOOTH",
"39 512 LINE SMOOTH"
);
},
{
closed = 1;
nodes = (
"137 537 LINE SMOOTH",
"137 569 OFFCURVE",
"137 636 OFFCURVE",
"218 636 CURVE SMOOTH",
"299 636 OFFCURVE",
"299 569 OFFCURVE",
"299 537 CURVE SMOOTH",
"299 512 LINE SMOOTH",
"299 480 OFFCURVE",
"299 413 OFFCURVE",
"218 413 CURVE SMOOTH",
"137 413 OFFCURVE",
"137 480 OFFCURVE",
"137 512 CURVE SMOOTH"
);
}
);
width = 436;
}
);
unicode = 0038;
},
{
glyphname = nine;
lastChange = "2017-03-04 09:18:48 +0000";
layers = (
{
layerId = "A550F09D-1C56-42E6-BD18-3147F7934E1A";
name = Regular;
paths = (
{
closed = 1;
nodes = (
"402 654 OFFCURVE",
"332 722 OFFCURVE",
"218 722 CURVE SMOOTH",
"104 722 OFFCURVE",
"34 654 OFFCURVE",
"34 537 CURVE SMOOTH",
"34 433 LINE SMOOTH",
"34 316 OFFCURVE",
"104 248 OFFCURVE",
"218 248 CURVE SMOOTH",
"332 248 OFFCURVE",
"402 316 OFFCURVE",
"402 433 CURVE SMOOTH",
"402 537 LINE SMOOTH"
);
},
{
closed = 1;
nodes = (
"304 433 LINE SMOOTH",
"304 401 OFFCURVE",
"303 334 OFFCURVE",
"218 334 CURVE SMOOTH",
"133 334 OFFCURVE",
"132 401 OFFCURVE",
"132 433 CURVE SMOOTH",
"132 537 LINE SMOOTH",
"132 569 OFFCURVE",
"133 636 OFFCURVE",
"218 636 CURVE SMOOTH",
"303 636 OFFCURVE",
"304 569 OFFCURVE",
"304 537 CURVE SMOOTH"
);
},
{
closed = 1;
nodes = (
"34 195 LINE",
"34 173 LINE SMOOTH",
"34 56 OFFCURVE",
"104 -12 OFFCURVE",
"218 -12 CURVE SMOOTH",
"332 -12 OFFCURVE",
"402 56 OFFCURVE",
"402 173 CURVE SMOOTH",
"402 455 LINE",
"304 295 LINE",
"304 173 LINE SMOOTH",
"304 141 OFFCURVE",
"303 74 OFFCURVE",
"218 74 CURVE SMOOTH",
"133 74 OFFCURVE",
"132 141 OFFCURVE",
"132 173 CURVE SMOOTH",
"132 195 LINE"
);
}
);
width = 436;
}
);
unicode = 0039;
},
{
glyphname = fraction;
lastChange = "2017-03-22 13:08:22 +0000";
layers = (
{
layerId = "A550F09D-1C56-42E6-BD18-3147F7934E1A";
name = Regular;
paths = (
{
closed = 1;
nodes = (
"456 311 LINE",
"456 404 LINE",
"34 404 LINE",
"34 311 LINE"
);
}
);
width = 490;
}
);
unicode = 2044;
},
{
glyphname = fraction.001;
lastChange = "2017-03-22 13:00:35 +0000";
layers = (
{
layerId = "A550F09D-1C56-42E6-BD18-3147F7934E1A";
name = Regular;
paths = (
{
closed = 1;
nodes = (
"266 710 LINE",
"34 0 LINE",
"141 0 LINE",
"372 710 LINE"
);
}
);
width = 600;
}
);
},
{
glyphname = asterisk;
lastChange = "2016-11-19 09:44:00 +0000";
layers = (
{
guideLines = (
{
angle = 90;
position = "{341, 764}";
}
);
layerId = "A550F09D-1C56-42E6-BD18-3147F7934E1A";
name = Regular;
paths = (
{
closed = 1;
nodes = (
"527 586 LINE",
"341 525 LINE",
"341 721 LINE",
"256 721 LINE",
"256 526 LINE",
"71 586 LINE",
"44 505 LINE",
"229 443 LINE",
"113 287 LINE",
"184 236 LINE",
"299 390 LINE",
"413 236 LINE",
"484 287 LINE",
"368 442 LINE",
"554 505 LINE"
);
}
);
width = 600;
}
);
unicode = 002A;
},
{
glyphname = backslash;
lastChange = "2017-03-22 13:36:25 +0000";
layers = (
{
layerId = "A550F09D-1C56-42E6-BD18-3147F7934E1A";
name = Regular;
paths = (
{
closed = 1;
nodes = (
"126 170 OFFCURVE",
"152 195 OFFCURVE",
"152 226 CURVE SMOOTH",
"152 257 OFFCURVE",
"126 282 OFFCURVE",
"93 282 CURVE SMOOTH",
"60 282 OFFCURVE",
"34 257 OFFCURVE",
"34 226 CURVE SMOOTH",
"34 195 OFFCURVE",
"60 170 OFFCURVE",
"93 170 CURVE SMOOTH"
);
},
{
closed = 1;
nodes = (
"152 75 OFFCURVE",
"126 100 OFFCURVE",
"93 100 CURVE SMOOTH",
"60 100 OFFCURVE",
"34 75 OFFCURVE",
"34 44 CURVE SMOOTH",
"34 13 OFFCURVE",
"60 -12 OFFCURVE",
"93 -12 CURVE SMOOTH",
"97 -12 OFFCURVE",
"100 -12 OFFCURVE",
"104 -11 CURVE",
"85 -73 LINE",
"104 -73 LINE",
"147 21 LINE SMOOTH",
"150 28 OFFCURVE",
"152 36 OFFCURVE",
"152 44 CURVE SMOOTH"
);
}
);
width = 186;
}
);
unicode = 005C;
},
{
glyphname = periodcentered;
lastChange = "2016-11-04 21:27:49 +0000";
layers = (
{
layerId = "A550F09D-1C56-42E6-BD18-3147F7934E1A";
name = Regular;
paths = (
{
closed = 1;
nodes = (
"126 -12 OFFCURVE",
"152 13 OFFCURVE",
"152 44 CURVE SMOOTH",
"152 75 OFFCURVE",
"126 100 OFFCURVE",
"93 100 CURVE SMOOTH",
"60 100 OFFCURVE",
"34 75 OFFCURVE",
"34 44 CURVE SMOOTH",
"34 13 OFFCURVE",
"60 -12 OFFCURVE",
"93 -12 CURVE SMOOTH"
);
}
);
width = 186;
}
);
unicode = 00B7;
},
{
glyphname = colon;
lastChange = "2016-11-04 21:34:24 +0000";
layers = (
{
layerId = "A550F09D-1C56-42E6-BD18-3147F7934E1A";
name = Regular;
paths = (
{
closed = 1;
nodes = (
"126 208 OFFCURVE",
"152 233 OFFCURVE",
"152 264 CURVE SMOOTH",
"152 295 OFFCURVE",
"126 320 OFFCURVE",
"93 320 CURVE SMOOTH",
"60 320 OFFCURVE",
"34 295 OFFCURVE",
"34 264 CURVE SMOOTH",
"34 233 OFFCURVE",
"60 208 OFFCURVE",
"93 208 CURVE SMOOTH"
);
},
{
closed = 1;
nodes = (
"126 390 OFFCURVE",
"152 415 OFFCURVE",
"152 446 CURVE SMOOTH",
"152 477 OFFCURVE",
"126 502 OFFCURVE",
"93 502 CURVE SMOOTH",
"60 502 OFFCURVE",
"34 477 OFFCURVE",
"34 446 CURVE SMOOTH",
"34 415 OFFCURVE",
"60 390 OFFCURVE",
"93 390 CURVE SMOOTH"
);
}
);
width = 186;
}
);
unicode = 003A;
},
{
glyphname = comma;
lastChange = "2016-11-04 21:26:02 +0000";
layers = (
{
layerId = "A550F09D-1C56-42E6-BD18-3147F7934E1A";
name = Regular;
paths = (
{
closed = 1;
nodes = (
"152 75 OFFCURVE",
"126 100 OFFCURVE",
"93 100 CURVE SMOOTH",
"60 100 OFFCURVE",
"34 75 OFFCURVE",
"34 44 CURVE SMOOTH",
"34 13 OFFCURVE",
"60 -12 OFFCURVE",
"93 -12 CURVE SMOOTH",
"97 -12 OFFCURVE",
"100 -12 OFFCURVE",
"104 -11 CURVE",
"85 -73 LINE",
"104 -73 LINE",
"147 21 LINE SMOOTH",
"150 28 OFFCURVE",
"152 36 OFFCURVE",
"152 44 CURVE SMOOTH"
);
}
);
width = 186;
}
);
unicode = 002C;
},
{
glyphname = ellipsis;
lastChange = "2017-03-22 12:59:08 +0000";
layers = (
{
layerId = "A550F09D-1C56-42E6-BD18-3147F7934E1A";
name = Regular;
paths = (
{
closed = 1;
nodes = (
"441 650 LINE",
"119 50 LINE",
"226 50 LINE",
"547 650 LINE"
);
},
{
closed = 1;
nodes = (
"236 454 OFFCURVE",
"279 496 OFFCURVE",
"279 547 CURVE SMOOTH",
"279 599 OFFCURVE",
"236 640 OFFCURVE",
"182 640 CURVE SMOOTH",
"127 640 OFFCURVE",
"84 599 OFFCURVE",
"84 547 CURVE SMOOTH",
"84 496 OFFCURVE",
"127 454 OFFCURVE",
"182 454 CURVE SMOOTH"
);
},
{
closed = 1;
nodes = (
"536 69 OFFCURVE",
"579 111 OFFCURVE",
"579 162 CURVE SMOOTH",
"579 214 OFFCURVE",
"536 255 OFFCURVE",
"482 255 CURVE SMOOTH",
"427 255 OFFCURVE",
"384 214 OFFCURVE",
"384 162 CURVE SMOOTH",
"384 111 OFFCURVE",
"427 69 OFFCURVE",
"482 69 CURVE SMOOTH"
);
}
);
width = 683;
}
);
unicode = 2026;
},
{
glyphname = exclam;
lastChange = "2016-11-04 21:26:53 +0000";
layers = (
{
layerId = "A550F09D-1C56-42E6-BD18-3147F7934E1A";
name = Regular;
paths = (
{
closed = 1;
nodes = (
"126 -12 OFFCURVE",
"152 13 OFFCURVE",
"152 44 CURVE SMOOTH",
"152 75 OFFCURVE",
"126 100 OFFCURVE",
"93 100 CURVE SMOOTH",
"60 100 OFFCURVE",
"34 75 OFFCURVE",
"34 44 CURVE SMOOTH",
"34 13 OFFCURVE",
"60 -12 OFFCURVE",
"93 -12 CURVE SMOOTH"
);
},
{
closed = 1;
nodes = (
"54 157 LINE",
"132 157 LINE",
"142 722 LINE",
"44 722 LINE"
);
}
);
width = 186;
}
);
unicode = 0021;
},
{
glyphname = exclamdown;
lastChange = "2016-11-04 21:35:04 +0000";
layers = (
{
layerId = "A550F09D-1C56-42E6-BD18-3147F7934E1A";
name = Regular;
paths = (
{
closed = 1;
nodes = (
"60 722 OFFCURVE",
"34 697 OFFCURVE",
"34 666 CURVE SMOOTH",
"34 635 OFFCURVE",
"60 610 OFFCURVE",
"93 610 CURVE SMOOTH",
"126 610 OFFCURVE",
"152 635 OFFCURVE",
"152 666 CURVE SMOOTH",
"152 697 OFFCURVE",
"126 722 OFFCURVE",
"93 722 CURVE SMOOTH"
);
},
{
closed = 1;
nodes = (
"142 -12 LINE",
"132 553 LINE",
"54 553 LINE",
"44 -12 LINE"
);
}
);
width = 186;
}
);
unicode = 00A1;
},
{
glyphname = numbersign;
lastChange = "2016-11-19 08:45:31 +0000";
layers = (
{
layerId = "A550F09D-1C56-42E6-BD18-3147F7934E1A";
name = Regular;
paths = (
{
closed = 1;
nodes = (
"314 710 LINE",
"82 0 LINE",
"180 0 LINE",
"412 710 LINE"
);
},
{
closed = 1;
nodes = (
"534 710 LINE",
"302 0 LINE",
"400 0 LINE",
"632 710 LINE"
);
},
{
closed = 1;
nodes = (
"664 476 LINE",
"694 569 LINE",
"162 569 LINE",
"132 476 LINE"
);
},
{
closed = 1;
nodes = (
"566 176 LINE",
"596 269 LINE",
"64 269 LINE",
"34 176 LINE"
);
}
);
width = 728;
}
);
unicode = 0023;
},
{
glyphname = period;
lastChange = "2017-03-04 09:31:31 +0000";
layers = (
{
layerId = "A550F09D-1C56-42E6-BD18-3147F7934E1A";
name = Regular;
paths = (
{
closed = 1;
nodes = (
"126 -12 OFFCURVE",
"152 13 OFFCURVE",
"152 44 CURVE SMOOTH",
"152 75 OFFCURVE",
"126 100 OFFCURVE",
"93 100 CURVE SMOOTH",
"60 100 OFFCURVE",
"34 75 OFFCURVE",
"34 44 CURVE SMOOTH",
"34 13 OFFCURVE",
"60 -12 OFFCURVE",
"93 -12 CURVE SMOOTH"
);
}
);
width = 186;
}
);
unicode = 002E;
},
{
glyphname = question;
lastChange = "2016-11-04 21:57:01 +0000";
layers = (
{
layerId = "A550F09D-1C56-42E6-BD18-3147F7934E1A";
name = Regular;
paths = (
{
closed = 1;
nodes = (
"197 -12 OFFCURVE",
"223 13 OFFCURVE",
"223 44 CURVE SMOOTH",
"223 75 OFFCURVE",
"197 100 OFFCURVE",
"164 100 CURVE SMOOTH",
"131 100 OFFCURVE",
"105 75 OFFCURVE",
"105 44 CURVE SMOOTH",
"105 13 OFFCURVE",
"131 -12 OFFCURVE",
"164 -12 CURVE SMOOTH"
);
},
{
closed = 1;
nodes = (
"213 162 LINE",
"213 376 OFFCURVE",
"352 273 OFFCURVE",
"366 507 CURVE SMOOTH",
"367 521 OFFCURVE",
"368 545 OFFCURVE",
"368 560 CURVE SMOOTH",
"368 656 OFFCURVE",
"320 722 OFFCURVE",
"202 722 CURVE SMOOTH",
"84 722 OFFCURVE",
"34 650 OFFCURVE",
"34 533 CURVE SMOOTH",
"34 500 LINE",
"132 500 LINE",
"132 533 LINE SMOOTH",
"132 565 OFFCURVE",
"132 636 OFFCURVE",
"202 636 CURVE SMOOTH",
"245 636 OFFCURVE",
"270 611 OFFCURVE",
"270 560 CURVE SMOOTH",
"270 544 OFFCURVE",
"270 516 OFFCURVE",
"269 505 CURVE SMOOTH",
"249 291 OFFCURVE",
"115 381 OFFCURVE",
"115 162 CURVE"
);
}
);
width = 402;
}
);
unicode = 003F;
},
{
glyphname = questiondown;
lastChange = "2016-11-04 21:56:44 +0000";
layers = (
{
layerId = "A550F09D-1C56-42E6-BD18-3147F7934E1A";
name = Regular;
paths = (
{
closed = 1;
nodes = (
"205 722 OFFCURVE",
"179 697 OFFCURVE",
"179 666 CURVE SMOOTH",
"179 635 OFFCURVE",
"205 610 OFFCURVE",
"238 610 CURVE SMOOTH",
"271 610 OFFCURVE",
"297 635 OFFCURVE",
"297 666 CURVE SMOOTH",
"297 697 OFFCURVE",
"271 722 OFFCURVE",
"238 722 CURVE SMOOTH"
);
},
{
closed = 1;
nodes = (
"189 548 LINE",
"189 334 OFFCURVE",
"50 437 OFFCURVE",
"36 203 CURVE SMOOTH",
"35 189 OFFCURVE",
"34 165 OFFCURVE",
"34 150 CURVE SMOOTH",
"34 54 OFFCURVE",
"82 -12 OFFCURVE",
"200 -12 CURVE SMOOTH",
"318 -12 OFFCURVE",
"368 60 OFFCURVE",
"368 177 CURVE SMOOTH",
"368 210 LINE",
"270 210 LINE",
"270 177 LINE SMOOTH",
"270 145 OFFCURVE",
"270 74 OFFCURVE",
"200 74 CURVE SMOOTH",
"157 74 OFFCURVE",
"132 99 OFFCURVE",
"132 150 CURVE SMOOTH",
"132 166 OFFCURVE",
"132 194 OFFCURVE",
"133 205 CURVE SMOOTH",
"153 419 OFFCURVE",
"287 329 OFFCURVE",
"287 548 CURVE"
);
}
);
width = 402;
}
);
unicode = 00BF;
},
{
glyphname = quotedbl;
lastChange = "2016-11-04 21:38:35 +0000";
layers = (
{
layerId = "A550F09D-1C56-42E6-BD18-3147F7934E1A";
name = Regular;
paths = (
{
closed = 1;
nodes = (
"152 808 OFFCURVE",
"126 833 OFFCURVE",
"93 833 CURVE SMOOTH",
"60 833 OFFCURVE",
"34 808 OFFCURVE",
"34 777 CURVE SMOOTH",
"34 746 OFFCURVE",
"60 721 OFFCURVE",
"93 721 CURVE SMOOTH",
"97 721 OFFCURVE",
"100 721 OFFCURVE",
"104 722 CURVE",
"85 660 LINE",
"104 660 LINE",
"147 754 LINE SMOOTH",
"150 761 OFFCURVE",
"152 769 OFFCURVE",
"152 777 CURVE SMOOTH"
);
},
{
closed = 1;
nodes = (
"312 808 OFFCURVE",
"286 833 OFFCURVE",
"253 833 CURVE SMOOTH",
"220 833 OFFCURVE",
"194 808 OFFCURVE",
"194 777 CURVE SMOOTH",
"194 746 OFFCURVE",
"220 721 OFFCURVE",
"253 721 CURVE SMOOTH",
"257 721 OFFCURVE",
"260 721 OFFCURVE",
"264 722 CURVE",
"245 660 LINE",
"264 660 LINE",
"307 754 LINE SMOOTH",
"310 761 OFFCURVE",
"312 769 OFFCURVE",
"312 777 CURVE SMOOTH"
);
}
);
width = 346;
}
);
unicode = 0022;
},
{
glyphname = quotesingle;
lastChange = "2017-03-22 12:42:09 +0000";
layers = (
{
layerId = "A550F09D-1C56-42E6-BD18-3147F7934E1A";
name = Regular;
paths = (
{
closed = 1;
nodes = (
"152 685 OFFCURVE",
"126 710 OFFCURVE",
"93 710 CURVE SMOOTH",
"60 710 OFFCURVE",
"34 685 OFFCURVE",
"34 654 CURVE SMOOTH",
"34 623 OFFCURVE",
"60 598 OFFCURVE",
"93 598 CURVE SMOOTH",
"97 598 OFFCURVE",
"100 598 OFFCURVE",
"104 599 CURVE",
"85 537 LINE",
"104 537 LINE",
"147 631 LINE SMOOTH",
"150 638 OFFCURVE",
"152 646 OFFCURVE",
"152 654 CURVE SMOOTH"
);
}
);
width = 186;
}
);
unicode = 0027;
},
{
glyphname = semicolon;
lastChange = "2016-11-04 21:36:54 +0000";
layers = (
{
layerId = "A550F09D-1C56-42E6-BD18-3147F7934E1A";
name = Regular;
paths = (
{
closed = 1;
nodes = (
"126 170 OFFCURVE",
"152 195 OFFCURVE",
"152 226 CURVE SMOOTH",
"152 257 OFFCURVE",
"126 282 OFFCURVE",
"93 282 CURVE SMOOTH",
"60 282 OFFCURVE",
"34 257 OFFCURVE",
"34 226 CURVE SMOOTH",
"34 195 OFFCURVE",
"60 170 OFFCURVE",
"93 170 CURVE SMOOTH"
);
},
{
closed = 1;
nodes = (
"152 75 OFFCURVE",
"126 100 OFFCURVE",
"93 100 CURVE SMOOTH",
"60 100 OFFCURVE",
"34 75 OFFCURVE",
"34 44 CURVE SMOOTH",
"34 13 OFFCURVE",
"60 -12 OFFCURVE",
"93 -12 CURVE SMOOTH",
"97 -12 OFFCURVE",
"100 -12 OFFCURVE",
"104 -11 CURVE",
"85 -73 LINE",
"104 -73 LINE",
"147 21 LINE SMOOTH",
"150 28 OFFCURVE",
"152 36 OFFCURVE",
"152 44 CURVE SMOOTH"
);
}
);
width = 186;
}
);
unicode = 003B;
},
{
glyphname = slash;
lastChange = "2017-03-22 13:01:18 +0000";
layers = (
{
layerId = "A550F09D-1C56-42E6-BD18-3147F7934E1A";
name = Regular;
paths = (
{
closed = 1;
nodes = (
"266 710 LINE",
"34 0 LINE",
"141 0 LINE",
"372 710 LINE"
);
}
);
width = 406;
}
);
unicode = 002F;
},
{
glyphname = underscore;
lastChange = "2017-03-22 13:12:00 +0000";
layers = (
{
layerId = "A550F09D-1C56-42E6-BD18-3147F7934E1A";
name = Regular;
paths = (
{
closed = 1;
nodes = (
"456 9 LINE",
"456 102 LINE",
"34 102 LINE",
"34 9 LINE"
);
}
);
width = 490;
}
);
unicode = 005F;
},
{
glyphname = parenleft;
lastChange = "2017-03-22 13:26:07 +0000";
layers = (
{
layerId = "A550F09D-1C56-42E6-BD18-3147F7934E1A";
name = Regular;
paths = (
{
closed = 1;
nodes = (
"124 731 LINE",
"10 570 OFFCURVE",
"-2 161 OFFCURVE",
"124 0 CURVE",
"222 0 LINE",
"222 2 LINE",
"85 203 OFFCURVE",
"105 508 OFFCURVE",
"222 729 CURVE",
"222 731 LINE"
);
}
);
width = 256;
}
);
unicode = 0028;
},
{
glyphname = parenright;
lastChange = "2017-03-22 13:26:24 +0000";
layers = (
{
layerId = "A550F09D-1C56-42E6-BD18-3147F7934E1A";
name = Regular;
paths = (
{
closed = 1;
nodes = (
"34 729 LINE",
"151 508 OFFCURVE",
"171 203 OFFCURVE",
"34 2 CURVE",
"34 0 LINE",
"132 0 LINE",
"258 161 OFFCURVE",
"246 570 OFFCURVE",
"132 731 CURVE",
"34 731 LINE"
);
}
);
width = 256;
}
);
unicode = 0029;
},
{
glyphname = emdash;
lastChange = "2017-03-22 13:10:19 +0000";
layers = (
{
layerId = "A550F09D-1C56-42E6-BD18-3147F7934E1A";
name = Regular;
paths = (
{
closed = 1;
nodes = (
"416 310 LINE",
"416 403 LINE",
"34 403 LINE",
"34 310 LINE"
);
}
);
width = 450;
}
);
unicode = 2014;
},
{
glyphname = endash;
lastChange = "2017-03-22 13:10:46 +0000";
layers = (
{
layerId = "A550F09D-1C56-42E6-BD18-3147F7934E1A";
name = Regular;
paths = (
{
closed = 1;
nodes = (
"416 310 LINE",
"416 403 LINE",
"34 403 LINE",
"34 310 LINE"
);
}
);
width = 450;
}
);
unicode = 2013;
},
{
glyphname = hyphen;
lastChange = "2017-03-22 13:11:00 +0000";
layers = (
{
layerId = "A550F09D-1C56-42E6-BD18-3147F7934E1A";
name = Regular;
paths = (
{
closed = 1;
nodes = (
"416 310 LINE",
"416 403 LINE",
"34 403 LINE",
"34 310 LINE"
);
}
);
width = 450;
}
);
unicode = 002D;
},
{
glyphname = euro;
lastChange = "2017-03-22 13:33:46 +0000";
layers = (
{
layerId = "A550F09D-1C56-42E6-BD18-3147F7934E1A";
name = Regular;
paths = (
{
closed = 1;
nodes = (
"318 636 LINE",
"394 636 OFFCURVE",
"405 570 OFFCURVE",
"405 509 CURVE SMOOTH",
"405 463 OFFCURVE",
"399 410 OFFCURVE",
"378 378 CURVE",
"378 376 LINE",
"476 376 LINE",
"498 409 OFFCURVE",
"504 462 OFFCURVE",
"504 509 CURVE SMOOTH",
"504 657 OFFCURVE",
"432 722 OFFCURVE",
"318 722 CURVE"
);
},
{
closed = 1;
nodes = (
"217 722 LINE",
"104 722 OFFCURVE",
"34 657 OFFCURVE",
"34 509 CURVE SMOOTH",
"34 363 LINE SMOOTH",
"34 315 OFFCURVE",
"43 267 OFFCURVE",
"69 232 CURVE",
"58 235 OFFCURVE",
"41 236 OFFCURVE",
"34 236 CURVE",
"34 150 LINE",
"154 150 OFFCURVE",
"275 86 OFFCURVE",
"293 0 CURVE",
"392 0 LINE",
"374 86 OFFCURVE",
"319 139 OFFCURVE",
"221 189 CURVE",
"157 227 OFFCURVE",
"132 253 OFFCURVE",
"132 327 CURVE SMOOTH",
"132 509 LINE SMOOTH",
"132 570 OFFCURVE",
"142 635 OFFCURVE",
"217 636 CURVE"
);
}
);
width = 538;
}
);
unicode = 20AC;
},
{
glyphname = equal;
lastChange = "2017-03-04 09:22:31 +0000";
layers = (
{
layerId = "A550F09D-1C56-42E6-BD18-3147F7934E1A";
name = Regular;
paths = (
{
closed = 1;
nodes = (
"416 227 LINE",
"416 320 LINE",
"34 320 LINE",
"34 227 LINE"
);
},
{
closed = 1;
nodes = (
"416 390 LINE",
"416 483 LINE",
"34 483 LINE",
"34 390 LINE"
);
}
);
width = 450;
}
);
unicode = 003D;
},
{
glyphname = minus;
lastChange = "2017-03-04 09:22:08 +0000";
layers = (
{
layerId = "A550F09D-1C56-42E6-BD18-3147F7934E1A";
name = Regular;
paths = (
{
closed = 1;
nodes = (
"416 310 LINE",
"416 403 LINE",
"34 403 LINE",
"34 310 LINE"
);
}
);
width = 450;
}
);
unicode = 2212;
},
{
glyphname = plus;
lastChange = "2017-03-04 09:21:41 +0000";
layers = (
{
guideLines = (
{
position = "{424, 356}";
}
);
layerId = "A550F09D-1C56-42E6-BD18-3147F7934E1A";
name = Regular;
paths = (
{
closed = 1;
nodes = (
"416 310 LINE",
"416 403 LINE",
"34 403 LINE",
"34 310 LINE"
);
},
{
closed = 1;
nodes = (
"179 165 LINE",
"272 165 LINE",
"272 548 LINE",
"179 548 LINE"
);
}
);
width = 450;
}
);
unicode = 002B;
},
{
glyphname = newGlyph.010;
lastChange = "2017-03-04 09:19:08 +0000";
layers = (
{
layerId = "A550F09D-1C56-42E6-BD18-3147F7934E1A";
name = Regular;
paths = (
{
closed = 1;
nodes = (
"1428 228 LINE SMOOTH",
"1428 292 OFFCURVE",
"1404 344 OFFCURVE",
"1364 372 CURVE",
"1401 398 OFFCURVE",
"1422 451 OFFCURVE",
"1422 512 CURVE SMOOTH",
"1422 537 LINE SMOOTH",
"1422 654 OFFCURVE",
"1352 722 OFFCURVE",
"1244 722 CURVE",
"1136 722 OFFCURVE",
"1066 654 OFFCURVE",
"1066 537 CURVE SMOOTH",
"1066 512 LINE SMOOTH",
"1066 451 OFFCURVE",
"1087 398 OFFCURVE",
"1124 372 CURVE",
"1084 344 OFFCURVE",
"1060 292 OFFCURVE",
"1060 228 CURVE SMOOTH",
"1060 173 LINE SMOOTH",
"1060 56 OFFCURVE",
"1130 -12 OFFCURVE",
"1244 -12 CURVE SMOOTH",
"1358 -12 OFFCURVE",
"1428 56 OFFCURVE",
"1428 173 CURVE SMOOTH"
);
},
{
closed = 1;
nodes = (
"1330 141 OFFCURVE",
"1329 74 OFFCURVE",
"1244 74 CURVE SMOOTH",
"1159 74 OFFCURVE",
"1158 141 OFFCURVE",
"1158 173 CURVE SMOOTH",
"1158 228 LINE SMOOTH",
"1158 260 OFFCURVE",
"1159 327 OFFCURVE",
"1244 327 CURVE SMOOTH",
"1329 327 OFFCURVE",
"1330 260 OFFCURVE",
"1330 228 CURVE SMOOTH",
"1330 173 LINE SMOOTH"
);
},
{
closed = 1;
nodes = (
"1324 480 OFFCURVE",
"1323 413 OFFCURVE",
"1244 413 CURVE SMOOTH",
"1165 413 OFFCURVE",
"1164 480 OFFCURVE",
"1164 512 CURVE SMOOTH",
"1164 537 LINE SMOOTH",
"1164 569 OFFCURVE",
"1165 636 OFFCURVE",
"1244 636 CURVE SMOOTH",
"1322 636 OFFCURVE",
"1324 569 OFFCURVE",
"1324 537 CURVE SMOOTH",
"1324 512 LINE SMOOTH"
);
},
{
closed = 1;
nodes = (
"660 56 OFFCURVE",
"730 -12 OFFCURVE",
"844 -12 CURVE SMOOTH",
"958 -12 OFFCURVE",
"1028 56 OFFCURVE",
"1028 173 CURVE SMOOTH",
"1028 265 LINE SMOOTH",
"1028 382 OFFCURVE",
"958 450 OFFCURVE",
"844 450 CURVE",
"844 364 LINE",
"929 364 OFFCURVE",
"930 297 OFFCURVE",
"930 265 CURVE SMOOTH",
"930 173 LINE SMOOTH",
"930 141 OFFCURVE",
"929 74 OFFCURVE",
"844 74 CURVE SMOOTH",
"759 74 OFFCURVE",
"758 141 OFFCURVE",
"758 173 CURVE SMOOTH",
"758 219 LINE",
"660 219 LINE",
"660 173 LINE SMOOTH"
);
},
{
closed = 1;
nodes = (
"670 636 LINE",
"1000 636 LINE",
"1000 722 LINE",
"670 722 LINE"
);
},
{
closed = 1;
nodes = (
"853 377 LINE",
"1016 664 LINE",
"940 706 LINE",
"778 419 LINE"
);
},
{
closed = 1;
nodes = (
"784 361 LINE",
"843 361 LINE",
"843 450 LINE",
"784 450 LINE"
);
}
